<svg id="Layer_1" data-name="Layer 1" xmlns="http://www.w3.org/2000/svg" viewBox="0 0 439.61 439.45"><defs><style>.cls-1{fill:#a4802e;}.cls-2{fill:#fff;}.cls-3{fill:#263988;}.cls-4{fill:#a4802f;}.cls-5{fill:#a4812f;}.cls-6{fill:#a5812f;}.cls-7{fill:#a58231;}.cls-8{fill:#a58130;}.cls-9{fill:#a68333;}.cls-10{fill:#a98739;}.cls-11{fill:#a78536;}.cls-12{fill:#fdc028;}.cls-13{fill:#fcc028;}.cls-14{fill:#fcbf28;}.cls-15{fill:#f9bd2a;}.cls-16{fill:#fbbf29;}.cls-17{fill:#f8bd2a;}.cls-18{fill:#f3ba2c;}.cls-19{fill:#daaa38;}.cls-20{fill:#ddac36;}.cls-21{fill:#edb62f;}.cls-22{fill:#c59d41;}.cls-23{fill:#fcfbf9;}.cls-24{fill:#e8dfcb;}.cls-25{fill:#eee7d8;}.cls-26{fill:#dccfaf;}.cls-27{fill:#fdfdfb;}.cls-28{fill:#fefdfc;}.cls-29{fill:#fbfaf7;}.cls-30{fill:#fbf9f5;}.cls-31{fill:#293b87;}.cls-32{fill:#283b87;}.cls-33{fill:#283a87;}.cls-34{fill:#2b3c86;}.cls-35{fill:#324083;}.cls-36{fill:#364381;}.cls-37{fill:#384480;}.cls-38{fill:#66616b;}.cls-39{fill:#63606c;}.cls-40{fill:#293b86;}.cls-41{fill:#2a3c86;}.cls-42{fill:#2d3d85;}.cls-43{fill:#2e3e84;}.cls-44{fill:#334182;}.cls-45{fill:#2f3e84;}.cls-46{fill:#2c3d85;}.cls-47{fill:#303f83;}.cls-48{fill:#444c7b;}.cls-49{fill:#344282;}.cls-50{fill:#374480;}.cls-51{fill:#374380;}</style></defs><title>mArtboard 1</title><path class="cls-1" d="M219.83,439.45C98.41,439.45,0,341.17,0,219.82,0,98.24,98.51-.46,220.64,0s219.66,99.89,219,221S340.5,439.54,219.83,439.45Z"/><path class="cls-2" d="M432.8,220a213,213,0,0,1-425.9-.4C7,100.59,104.14,5.87,221.58,6.83,337,7.78,432.66,101.36,432.8,220Z"/><path class="cls-3" d="M219.79,375A155.39,155.39,0,0,1,64.58,219.11c.29-85.18,69.83-154.65,155.26-154.59a155.22,155.22,0,0,1,0,310.45Z"/><path class="cls-1" d="M141.31,403.83a3.24,3.24,0,0,1,.57-2.18q3.79-8.95,7.6-17.88c.62-1.46,1-1.49-.9-2.51-3.46-1.81-3.75-1.78-5.57,1.78-1.34,2.63-2.68,5.29-3.79,8-1.73,4.27-5,6.1-9.37,6.19-5.54.11-4.84.78-7.59-4.59a12.82,12.82,0,0,1-1.41-5,7,7,0,0,1,3.62-6.81c1-.59,2-1,3-1.56a6.31,6.31,0,0,0,2.23-1.78,3.67,3.67,0,0,0-.2-5.19,12.23,12.23,0,0,0-1.77-1.27,62,62,0,0,1,6.18-3c.53-.24.89.13,1.19.54a9.57,9.57,0,0,1,1.57,3.21c.61,2.43-.13,4-2.4,5.1-1.22.58-2.55,1-3.74,1.61A9.72,9.72,0,0,0,127,391.6c1.28,2.05,2.41,2.22,4.25.62a6.33,6.33,0,0,0,2.11-4.2c.81-7.17,5.61-10.78,11.73-13.21a4.16,4.16,0,0,1,3.7.23q4.1,2.24,8.3,4.3c1,.5,1.18,1,.73,2.05q-4.36,10-8.62,20.05a1.93,1.93,0,0,1-1.5,1.37Z"/><path class="cls-1" d="M370.23,309.84l-4.36,6.86c-1.3-1.6-1.79-3.38-2.59-5-.29-.58,0-1.08.32-1.56,3.48-5.56,7-11.11,10.42-16.69.56-.9,1.06-.94,1.94-.46q10.08,5.56,20.21,11a2,2,0,0,1,1.21,1.87c0,1.68.13,3.36.3,5,.11,1.07-.29,1.47-1.33,1.38-3-.27-6.06-.45-9.07-.81a46.55,46.55,0,0,0-13.61.21c-.54.09-1.14.07-1.47.65,3.88,5.54,12.77,6.92,17,3.38a59.28,59.28,0,0,1,1.73,6.45c.18.76-.53.88-1.06,1-9.72,2.47-16.52-1.46-19.11-10.85C370.59,311.68,370.47,311,370.23,309.84Z"/><path class="cls-1" d="M308.49,364.35l7.67,15.71c.81,1.65,1.59,3.32,2.43,4.95a3.64,3.64,0,0,1,.3,2.76c-.45,1.7-.79,3.43-1.14,5.15-.17.84-.58,1.06-1.35.71-1.67-.76-3.37-1.47-5-2.28a15.24,15.24,0,0,0-6.25-1.46c-1.44-.06-1.61.13-1.19,1.45s.89,2.74,1.43,4.07a2.51,2.51,0,0,1-.15,2.49c-1.18,1.9-2.29,3.84-3.42,5.74-1-.19-1.35-1-1.84-1.56a16.06,16.06,0,0,0-6.91-5c-1.64-.57-1.64-.78-1.07-2.49a9.73,9.73,0,0,1,2.16-3.7,1.92,1.92,0,0,0,.27-2.55c-1.07-2.15-2-4.34-3.07-6.5s-1.13-2.12-3.53-1.83c-.22,0-.46.21-.81-.27a29.87,29.87,0,0,1,1-4.14,1.2,1.2,0,0,1,.93-1c3.52-.86,6.42-.63,8.13,3,.79,1.66,1.59,3.31,2.38,5,.31.66.61,1.34,1.52,1.27a29.14,29.14,0,0,1,9.85,1,4.44,4.44,0,0,0-.7-2.18c-1.39-3-2.75-5.95-4.23-8.87a3.59,3.59,0,0,1-.14-3.19c.81-2.06,1.51-4.17,2.25-6.26Z"/><path class="cls-1" d="M330.09,358c-.27-.07-.42-.12-.58-.14-2.62-.37-2.63-.37-2.29-2.91.21-1.57.44-3.14.66-4.71,6.23,1.34,7.95.2,8.88-5.86a5.71,5.71,0,0,1,.57,4c-.13,1,.25,1.3,1.18,1.28a12.31,12.31,0,0,1,2.15.14,5.63,5.63,0,0,1,4,2.39c2.79,3.9,5.69,7.73,8.6,11.54a2.26,2.26,0,0,1,.39,2.6c-.85,1.89-1.56,3.84-2.32,5.74-.89-.1-1.09-.78-1.45-1.26-3.16-4.23-6.45-8.36-9.39-12.74-2.27-3.38-5.7-2.65-8.23-1.3-.71.38-.57.86-.22,1.38a6.17,6.17,0,0,0,1.93,1.78,36.87,36.87,0,0,0,4,2.22,6.28,6.28,0,0,1,3.67,4.45c1.1,4.31.47,8.57-.45,12.82a1.38,1.38,0,0,1-1.34,1.14,18.89,18.89,0,0,1-10.36-1,7.18,7.18,0,0,1-4.58-6.24c-.1-1-.18-2.07-.27-3.11,0-.32,0-.64-.06-1-.39-3.79-1.8-4.91-5.62-4.31a24.49,24.49,0,0,1,.61-5.61c.09-.67.55-.89,1.15-1a4.34,4.34,0,0,1,5.21,4,30,30,0,0,1-.08,3.11,8.56,8.56,0,0,0,7.08,8.92,14.86,14.86,0,0,0,6.19,0c1.29-.28,1.59-.81,1.22-2a4.55,4.55,0,0,0-1.73-2.24,13.16,13.16,0,0,0-3.81-2c-3.25-1.12-4.6-3.5-4.64-6.79C330.08,360.21,330.09,359.18,330.09,358Z"/><path class="cls-1" d="M47.26,298.45c-2.55.63-4.87,1.14-7.15,1.78a2.27,2.27,0,0,1-2.89-.88,26.75,26.75,0,0,0-2.46-2.94c-.66-.71-.84-1.29.06-1.94a14.85,14.85,0,0,0,5.87-7.66c.27-.87.83-.79,1.5-.47A10,10,0,0,1,45.87,289a2.6,2.6,0,0,0,3.35.8c1.8-.66,3.67-1.09,5.5-1.66,2.21-.68,2.36-.9,2.45-3.18,0-.31,0-.61.07-1a20.87,20.87,0,0,1,4.34,1.52,1.3,1.3,0,0,1,.82,1.07c.81,3.81-.73,6.54-4.49,7.84-1.66.58-3.33,1.13-5,1.69-.63.21-1.16.5-1.18,1.3a24.06,24.06,0,0,1-.6,5c-.36,1.54-.83,3.06-1.29,4.76a3.65,3.65,0,0,0,1.89-.61c3.71-1.86,7.45-3.69,11.13-5.61a2.52,2.52,0,0,1,3.05.1c1.58,1.17,3.29,2.16,4.92,3.21-.37.78-1,.86-1.47,1.08-6.85,3.06-13.73,6.08-20.56,9.18a3,3,0,0,1-3.13,0c-1.36-.82-2.81-1.5-4.48-2.38A27.66,27.66,0,0,0,47.26,298.45Z"/><path class="cls-1" d="M68.69,309.94c1.77.31,3.33.6,4.91.84.88.13,1.19.64,1.29,1.45a4.26,4.26,0,0,1-4,4.76,13.77,13.77,0,0,1-2.62-.16,8.3,8.3,0,0,0-9,6.16,17.87,17.87,0,0,0-.28,6.43c.13,1.29.76,1.62,2,1.22a5,5,0,0,0,2.39-1.91,11,11,0,0,0,1.71-3.15c1.13-3.39,3.93-4.8,7.8-4.53a8.83,8.83,0,0,1,1.18.2c.84.18,1.06-.2,1.19-1,.34-2.13.4-2.14,2.57-1.82,1.56.22,3.11.49,4.67.73-1.37,5.93-.1,8,5.2,8.61-1.49.79-1.49.79-4.65.59-.16,1.15-.31,2.32-.49,3.49a4.75,4.75,0,0,1-2.15,3.3q-5.71,4-11.32,8.06a2.47,2.47,0,0,1-2.84.38c-1.72-.82-3.51-1.49-5.23-2.2,0-1,.71-1.14,1.19-1.49,4.23-3,8.39-6.13,12.74-9,2.62-1.71,2.7-5,1.17-7.65A.84.84,0,0,0,74.7,323a10.65,10.65,0,0,0-1.51,1.52,15.27,15.27,0,0,0-2.26,3.66,6.61,6.61,0,0,1-5.74,4.11,28.67,28.67,0,0,1-10.92-.9,1.68,1.68,0,0,1-1.39-1.69,20.72,20.72,0,0,1,.78-8.53A7.49,7.49,0,0,1,61,315.65c1.35-.08,2.73,0,4.06-.24,2.9-.47,3.74-1.61,3.55-4.54A6.53,6.53,0,0,1,68.69,309.94Z"/><path class="cls-1" d="M238.41,406.23c0-3.21,0-6.25,0-9.28,0-1.33-.6-1.59-1.75-1.59-4.88,0-9.76-.07-14.63-.13a6.3,6.3,0,0,1-2.61-.24,41.28,41.28,0,0,1,4.35-5c.43-.45,1-.33,1.6-.31,5.67.19,11.35.36,17,.59,1.93.08,2,.16,2,2.1.14,6.4.21,12.79.42,19.19a3.65,3.65,0,0,1-1.77,3.59,25.91,25.91,0,0,1-2.94,2.13,144.62,144.62,0,0,0-10-11.68c-.64-.71-1.32-1.39-2-2.1s-1-.71-1.58,0a12.87,12.87,0,0,0-1.81,3.09c-.33.75.12,1.2.56,1.68,1.66,1.84,3.27,3.73,5,5.52.76.79.9,1.36.06,2.18-1,1-2,2.1-2.9,3.2-.72.85-1.3.68-1.92-.09a56.5,56.5,0,0,1-5.9-9.59,1.57,1.57,0,0,1,.11-1.58,28.41,28.41,0,0,1,9.13-10c.85-.6,1.3-.13,1.8.42,1.94,2.12,3.88,4.26,5.84,6.36C237,405.19,237.4,405.93,238.41,406.23Z"/><path class="cls-4" d="M377.75,338.45a4.23,4.23,0,0,1-2.19-1.21c-4.63-3.41-9.25-6.84-13.88-10.25-1.45-1.06-1.48-1.06-2.7.22q-3.54,3.74-7,7.53a3.52,3.52,0,0,0,0,4.88c2.82,2.72,5.73,5.33,8.6,8a2.31,2.31,0,0,0,1.75.62c.8,0,1.6,0,2.4,0,2.52,0,2.58-.07,2.43-2.53-.21-3.36-2.35-5.72-6-6.57-2.07-.49-2.07-.49-2.08-2.61,0-1.33,0-2.66,0-4.2a6.65,6.65,0,0,1,3.54,1.85c3.69,3.14,5.24,7.35,5.85,12a44.67,44.67,0,0,1,.12,6.46c0,1.19-.43,1.75-1.69,1.72-1.92,0-3.84,0-5.75,0a2.84,2.84,0,0,1-2.13-.87q-4.41-4.06-8.87-8.06a3.7,3.7,0,0,1-1.3-2.45c-.38-3.17-.84-6.33-1.32-9.49a3,3,0,0,1,.78-2.82q5.09-5.41,10-11c.87-1,1.48-1.05,2.54-.25,5,3.76,10,7.45,15,11.13A2.91,2.91,0,0,1,377.3,333,47.38,47.38,0,0,1,377.75,338.45Z"/><path class="cls-1" d="M274.74,381.33a2.23,2.23,0,0,1,.67,1.35c1.66,6.5,3.28,13,5,19.49a2.69,2.69,0,0,1-.78,3c-2.2,2.21-4.34,4.47-6.44,6.77a3.54,3.54,0,0,1-2.94,1.25,31.92,31.92,0,0,1-6.19-.59,16.68,16.68,0,0,1-3.85-1.29c-4.3-2.12-5-5.42-1.84-9.07.62-.72,1.3-1.38,2.1-2.22a7.45,7.45,0,0,0-2.67-.25c-3.61-.39-5.19-2.74-4.09-6.2a21,21,0,0,1,4-7,4.66,4.66,0,0,1,6.79-.24.75.75,0,0,1,.13,1.05l-2.77,4.28a3.6,3.6,0,0,0-4.7-1.55c-1.31.51-1.61,1.33-.67,2.37a7.79,7.79,0,0,0,7.74,2.73c.69-.14,1.35-.42,2.48-.77a42.84,42.84,0,0,0-3.55,4.26c-2.44,3.74-1.81,5.87,2.33,7.65a25.15,25.15,0,0,0,7.67,1.79c1.47.14,1.67-.12,1.28-1.64C273,400.69,271.58,395,270,389.26c-.5-1.77-.3-3,1.1-4.24S273.32,382.35,274.74,381.33Z"/><path class="cls-1" d="M172.37,391c-.52-1.81-1.39-3.15-3.25-3.56-1.59-.35-2.37.28-2,1.89a7.86,7.86,0,0,0,5,6c.67.25,1.37.41,2.35.7-1.64.63-3.07,1.09-4.43,1.71-4.47,2-5,4.28-2,8.17a21.21,21.21,0,0,0,6.58,5.77c.79-.5.81-1.26,1-1.92,1.62-5.6,3.29-11.19,4.8-16.81a3.16,3.16,0,0,1,2.64-2.63c1.77-.39,3.49-1,5.19-1.56.54.64.21,1.17.06,1.68-1.83,6.37-3.71,12.73-5.5,19.11a2.87,2.87,0,0,1-2.31,2.34c-2.94.72-5.85,1.61-8.75,2.51a4,4,0,0,1-3.63-.5,28.91,28.91,0,0,1-5.8-4.61,16.06,16.06,0,0,1-1.24-1.46c-3.19-4.38-2-7.9,3.22-9.45a6.1,6.1,0,0,0,2.37-.79c-.86-.58-1.73-1.08-2.49-1.71-2.54-2.12-2.64-4.7-.26-7a20,20,0,0,1,7.86-4.45c2-.64,5.15,1.53,5.41,3.6.07.53-.29.7-.63.88C175.23,389.57,173.87,390.22,172.37,391Z"/><path class="cls-4" d="M112.64,85.77c-.31-4.31-2.71-7.3-6.56-8.17-1.24-.28-1.61-.72-1.43-1.89s.31-2.51.47-3.87a8.56,8.56,0,0,1,6.68,4.39,13.77,13.77,0,0,1,1.88,6.38,31.52,31.52,0,0,1-.32,7.65c-.15.85-.49,1.24-1.39,1.25-2.4,0-4.79.15-7.19.26a2.44,2.44,0,0,1-1.87-.9c-2.8-2.74-5.59-5.48-8.43-8.18a2.76,2.76,0,0,1-.88-2.34q.21-4.31.32-8.62a1.66,1.66,0,0,1,1.24-1.77c1.59-.53,3.14-1.2,4.73-1.7a2.61,2.61,0,0,0,1.87-1.95c.49-1.69,1.19-3.31,1.63-5,.36-1.4,1.08-1.75,2.43-1.51,1.73.3,3.48.46,5.23.66a3.46,3.46,0,0,1,2.42,1.35c3,3.66,6,7.28,9,10.91a2.43,2.43,0,0,1,.77,1.93c-.22,1.72-.4,3.44-.62,5.32-1-.24-1.39-1-1.87-1.57-3-3.54-6.08-7-8.91-10.68-1.73-2.25-4.25-2.31-6.55-3-.71-.22-.91.49-1.09,1-.5,1.43-1.07,2.85-1.45,4.31a2.94,2.94,0,0,1-2.21,2.24c-1.07.33-2.09.78-3.13,1.2-2.24.9-2.62,2.81-.88,4.58,1,1,2,1.87,3,2.79,1.29,1.19,2.67,2.3,3.87,3.58A4.17,4.17,0,0,0,107,85.8C108.77,85.67,110.61,85.77,112.64,85.77Z"/><path class="cls-4" d="M87.7,109.58c-.79-4.06-3.29-6.56-7.1-7.23-1.83-.32-1.83-.32-1.85-2.26,0-.16,0-.32,0-.48,0-3.23.55-3.59,3.56-2.2a10.13,10.13,0,0,1,5.06,5.53c1.55,3.63,1.63,7.45,1.56,11.3,0,.92-.47,1.24-1.32,1.32a13.11,13.11,0,0,0-2.84.42c-3.79,1.22-6.74-.06-9.46-2.72a63.06,63.06,0,0,0-5.81-4.63,2.81,2.81,0,0,1-1.24-2.19c-.18-2.87-.38-5.74-.65-8.6A1.79,1.79,0,0,1,69,95.69a1.18,1.18,0,0,0,.22-.1c1.74-1,4.08-1.28,5.16-2.86s1-3.63,1.47-5.49a13.29,13.29,0,0,0,.33-1.4,1.21,1.21,0,0,1,1.45-1.19q3.23.12,6.47.17a2.36,2.36,0,0,1,1.65.84q5.16,5,10.34,10a2.62,2.62,0,0,1,1,2.07c0,1.67,0,3.34,0,5.08-1.09.07-1.5-.73-2-1.24-3.41-3.25-6.88-6.46-10.14-9.85-1.92-2-4.39-1.61-6.66-2.12-.7-.16-.82.61-.94,1.15a35.57,35.57,0,0,0-.88,4,3.33,3.33,0,0,1-2.37,3,29.06,29.06,0,0,0-2.78,1.4c-1.88,1-2.31,3.07-.69,4.37,2.92,2.36,6,4.53,9,6.79a1.72,1.72,0,0,0,1.36.34A67.3,67.3,0,0,0,87.7,109.58Z"/><path class="cls-1" d="M282.73,61.66a5.1,5.1,0,0,1,.37-2.33,12.47,12.47,0,0,0,.16-5.93c-.43-1.81-.21-2.06,1.66-2.3a13.35,13.35,0,0,1,2.87,0,1.8,1.8,0,0,0,1.94-1c.79-1.39,1.67-2.73,2.5-4.09,1.46-2.39,1.46-2.4-.19-4.69a14.21,14.21,0,0,1,1.55-.62c1.15-.32,2.25-1.33,3.46.07s2.51,3,1.61,5.13a22.26,22.26,0,0,1-2.19,4c-1,1.44-1.16,2.65.11,4,1.49,1.6,1.94,3.82,3.13,5.87,2.14-2.33,4.25-4.51,6.22-6.81a3.71,3.71,0,0,1,3.95-1.5,24.56,24.56,0,0,0,3.54.26c.44.61,0,.93-.32,1.27q-5,6-10,12c-1.6,1.92-4.07,2.07-6.16,3-.58.25-.84-.26-.93-.78-.26-1.5-.52-3-.78-4.49a12.74,12.74,0,0,0-2.45-5.54A19.32,19.32,0,0,0,290,60.5a2.47,2.47,0,0,1-2.2,1.17C286.14,61.62,284.48,61.66,282.73,61.66Z"/><path class="cls-4" d="M336.27,97.48c1.72-1.47,3.29-2.8,4.86-4.13s3-2.6,4.61-3.83a3,3,0,0,0,1.34-2.86c-.1-1.19,0-2.4,0-3.6,0-1,.27-1.51,1.33-1.51,3,0,6.08,0,9.12,0a2.44,2.44,0,0,1,2,1.12c3.45,4.2,6.89,8.42,10.39,12.57.78.93.56,1.45-.24,2.15-4.82,4.2-9.62,8.44-14.42,12.66-.36.31-.71.7-1.23.69a22,22,0,0,1-5.92-.55c.29-.94,1.06-1.31,1.64-1.82,4.46-3.89,8.94-7.76,13.4-11.65,1.45-1.27,1.45-1.31.24-2.81q-3.4-4.19-6.83-8.36a5.06,5.06,0,0,0-4.61-1c-.56.26-.52.75-.52,1.22,0,1.36,0,2.72.14,4.07a2.76,2.76,0,0,1-1.11,2.7c-2.19,1.74-4.33,3.55-6.44,5.39a2.74,2.74,0,0,1-2.63.73C339.77,98.27,338.06,98.35,336.27,97.48Z"/><path class="cls-4" d="M284,26.53q-4.7,12.69-9.39,25.38a2.34,2.34,0,0,1-1.6,1.61c-2.74.86-5.46,1.78-8.19,2.69a3.12,3.12,0,0,1-1.87.14c-3.8-1.05-7.94-6.43-8.12-10.45A6.2,6.2,0,0,1,257,40.59c.79-.68,1.6-1.33,2.32-2.07,1.9-2,1.87-3.6-.07-5.58a5.86,5.86,0,0,0-.82-.59,11.39,11.39,0,0,1,3.05-2.55c1.49-1.11,1.82-1,2.85.44a4.6,4.6,0,0,1-.35,6.14,28.71,28.71,0,0,1-2.67,2.4,4.48,4.48,0,0,0-1.47,5.16,15.33,15.33,0,0,0,3.65,6.65,9.53,9.53,0,0,0,2.28,1.73c1.93,1,2.14,1,2.93-1.05,2.65-6.76,5.35-13.51,7.89-20.32A4.9,4.9,0,0,1,280,27.59c1.26-.39,2.46-1,3.69-1.49Z"/><path class="cls-4" d="M104.14,353.21l8-.22a2.4,2.4,0,0,1,1.46.76c3.5,2.67,7,5.33,10.48,8,1.3,1,1.3,1.06.27,2.42-4,5.28-8.08,10.54-12.07,15.84a2.91,2.91,0,0,1-2.83,1.33c-1.91-.14-3.84-.14-5.76-.12A3.25,3.25,0,0,1,101,380a8.55,8.55,0,0,1-2.18-6.17c.06-1.06.32-1.63,1.5-1.64,1.42,0,2.85-.17,4.23-.26.24.79-.25,1.21-.41,1.72a3.57,3.57,0,0,0,0,2.58c.28.66.5,1.49,1.2,1.71.89.27,1.15-.69,1.56-1.22q4.41-5.69,8.77-11.42c1.19-1.57,1.19-1.59-.32-2.77-3.15-2.46-6.32-4.9-9.47-7.37A3.9,3.9,0,0,1,104.14,353.21Z"/><path class="cls-5" d="M61,127.61c.21,1.23.34,1.93.46,2.64.31,1.87.33,2-1.43,2.36-1,.24-1,.73-.82,1.54.45,2,.43,2,2.5,2A14.17,14.17,0,0,0,67.81,135a7.7,7.7,0,0,0,4.44-5.33,1.84,1.84,0,0,0-.84-2.24q-5.41-3.77-10.74-7.65c-1-.74-1.6-.61-2.34.36-2.61,3.43-5.3,6.81-8,10.2-.39.49-.66,1.1-1.31,1.35A7.37,7.37,0,0,1,49.8,124q3.81-4.93,7.64-9.85c1-1.33,1.08-1.33,2.44-.37,4.44,3.13,8.84,6.31,13.31,9.41a3.13,3.13,0,0,1,1.51,3c-.09,2.47-.11,5,0,7.43a3.49,3.49,0,0,1-1.82,3.36,17.67,17.67,0,0,1-3.66,1.76,51.26,51.26,0,0,1-8.38,2,1.56,1.56,0,0,1-2-1.14,68.66,68.66,0,0,1-2.28-7.82,1.31,1.31,0,0,1,.57-1.65C58.33,129.34,59.52,128.57,61,127.61Z"/><path class="cls-5" d="M235.17,36.37A20.65,20.65,0,0,1,232,39.48c-.29-.21-.53-.41-.79-.58-.63-.39-.91-1.75-2.06-.68-1.35,1.25-1.51,1.74-.71,3a15.76,15.76,0,0,0,3.44,4,8.21,8.21,0,0,0,6.21,2c2.67-.3,3.2-.92,3.27-3.6.11-3.91.25-7.83.34-11.74,0-1.78,0-1.81-1.8-2-3.66-.31-7.32-.6-11-.89a14.69,14.69,0,0,1-3.9-.58c2.46-1.93,4.24-4.19,7.87-3.55s7.64.6,11.46.87c1.84.13,1.89.14,1.84,1.94-.14,5.59-.35,11.18-.47,16.78a2.37,2.37,0,0,1-1.24,2.13c-2.21,1.44-4.45,2.85-6.57,4.41a3.37,3.37,0,0,1-3.58.41,16.66,16.66,0,0,1-3.16-1.71A45.48,45.48,0,0,1,224.8,44a1.59,1.59,0,0,1-.25-2.31,78.33,78.33,0,0,1,5-6.75,1.24,1.24,0,0,1,1.67-.44A26.75,26.75,0,0,1,235.17,36.37Z"/><path class="cls-4" d="M88,337.87c2.68-.19,4.72-.32,6.77-.48a2.06,2.06,0,0,1,1.67.78c2.71,2.7,5.41,5.42,8.17,8.08.81.78.58,1.26-.09,1.94q-8.68,8.76-17.32,17.55c-.39.4-.78.89-1.41.77a52.14,52.14,0,0,1-7.44-1.5,7,7,0,0,1,1.8-2.11q7.59-7.65,15.2-15.28c1.19-1.2,1.19-1.24,0-2.42C93.1,342.89,90.77,340.6,88,337.87Z"/><path class="cls-5" d="M143.86,45.66A38.73,38.73,0,0,1,145,40.17a1,1,0,0,1,1.23-.83,9,9,0,0,1,4.06,1.34c1.4,1,2.25,2.15,1.85,4A16.46,16.46,0,0,0,152,50a9.46,9.46,0,0,0,1.75,4.66c3.2,4.32,7.37,3.52,10.65,1.69.95-.53.69-1.33.53-2.11-.81-4-1.42-8-2.53-12-.82-2.93-.5-5.28,1.7-7.35.4-.38.54-1,1.11-1.21.81,1.56,3.46,14.92,3.92,19.77,1.12.44,2.36-.32,3.54.36a21.64,21.64,0,0,1-1.43,5.24c-1.35-.6-2.5-1.15-3.68-1.61a2,2,0,0,0-2.68.86c-.88,1.33-1.93,2.55-2.83,3.87a2.43,2.43,0,0,1-2.22,1.09c-4.9.11-8.23-2.5-9.28-7.28a24.05,24.05,0,0,1-.36-6.68c.17-2.78-1.23-4.09-4.05-3.79A4.28,4.28,0,0,1,143.86,45.66Z"/><path class="cls-4" d="M192.65,393.9l4.53-4.48a2,2,0,0,1,1.57-.4c2.79,0,5.59.09,8.38,0,1.32,0,1.58.57,1.59,1.73q.07,11.37.25,22.73a2.56,2.56,0,0,1-1.53,2.66c-1.4.72-2.72,1.61-4.18,2.49a2.85,2.85,0,0,1-.33-2q.18-9.57.38-19.14c0-.56,0-1.12,0-1.67.11-1.18-.47-1.51-1.56-1.49-2.95,0-5.9,0-8.84,0Z"/><path class="cls-6" d="M372.72,130.94c-.8,2-1.7,3.61-1.84,5.47-.06.76-.36,1.61.65,2.07a1.94,1.94,0,0,0,2.55-.41c2.77-2.87,5.61-5.68,8.49-8.45a2.79,2.79,0,0,0,.88-2.77q-.53-2.95-.92-5.91c-.24-1.79-.2-1.81,1.5-1.78.72,0,1.44.1,2.15.09a1.91,1.91,0,0,1,1.76,1c2.92,4.57,5.87,9.12,8.79,13.64-.53.75-1.23.51-1.83.64a2.28,2.28,0,0,1-2.71-1.34c-1.62-2.84-3.37-5.61-5.1-8.39-.43-.69-.73-1.6-2.11-1.66.6,2.41,1.09,4.64,1.74,6.83a2.68,2.68,0,0,1-.89,3.14c-2.78,2.52-5.49,5.12-8.17,7.75a2.29,2.29,0,0,1-2.73.72c-1.79-.67-3.65-1.17-5.5-1.67a2.29,2.29,0,0,1-1.8-2,21.69,21.69,0,0,1-.31-6.43c.1-1,.36-1.66,1.62-1.29S371.3,130.67,372.72,130.94Z"/><path class="cls-6" d="M140.92,70.09l-6.82-13.6c-.64-1.28-1.35-2.54-1.93-3.85-.45-1-1-1-1.84-.5-2.75,1.62-5.54,3.19-8.32,4.75-.53.3-1,.82-1.71.67,0-.08-.11-.16-.1-.23.31-5.43.3-5.44,5-8,2.45-1.35,4.93-2.64,7.35-4,1-.55,1.51-.55,2,.56,2.66,5.72,5.37,11.42,8.07,17.12a2.05,2.05,0,0,1,.23,1.61C142.28,66.21,141.7,67.85,140.92,70.09Z"/><path class="cls-5" d="M379.79,106.63l-7.5,6.1c-2.48,2-4.92,4.08-7.47,6a3.62,3.62,0,0,0-1.66,3.42c.1,1.88,0,2-1.74,2-4,.06-3.33.74-3.78-3.42a4.7,4.7,0,0,1,2.19-4.8c4.68-3.46,9.2-7.14,13.8-10.71,2-1.57,1.4-1.48,3.68-.17C378.07,105.46,378.78,106,379.79,106.63Z"/><path class="cls-7" d="M130.92,358.07c-2,.89-3.94,1-6,1.6.13-5.13-2.55-8.65-5.75-11.89a11.33,11.33,0,0,0-5.56-3.14c-1.16-.27-1.46,0-1.32,1.15a7.13,7.13,0,0,0,5.21,5.86c-3.16,1.27-5.7.78-7.83-1.64-1.16-1.31-3-2.88-2.51-4.39s2.88-1.11,4.47-1.41a22.52,22.52,0,0,1,5.73-.2,11.47,11.47,0,0,1,8.18,4A27.84,27.84,0,0,1,130.92,358.07Z"/><path class="cls-8" d="M323.71,350c.29,3.84-.79,5.83-3.87,7.29a13.84,13.84,0,0,1-3.39,1.17c-1.44.27-1.63.12-1.76-1.4a14.63,14.63,0,0,1,9.05-15.14,29.42,29.42,0,0,1,7.42-1.83c1-.11,1.51.26,1.39,1.32,0,.16,0,.32,0,.48-.08,1.11.4,2.44-.26,3.27s-1.91-.08-2.91,0A17.61,17.61,0,0,0,318.2,350a5.06,5.06,0,0,0-1.37,2.49c-.22.82.15,1.23,1,1.21C320.41,353.61,322.69,352.94,323.71,350Z"/><path class="cls-6" d="M401.92,237.63c-1.66-2.43-3.25-4.51-4.57-6.75a5.59,5.59,0,0,1,1.81-7.61c.13-.08.32-.2.42-.16a5.36,5.36,0,0,0,4.17-.07c.15-.06.45.13.63.26a5.56,5.56,0,0,1,1.68,7.46C404.8,233,403.16,235.07,401.92,237.63Z"/><path class="cls-5" d="M400.76,195.35c1.36,2.3,2.7,4.18,4,6.06a5.79,5.79,0,0,1-1.35,8.3c-1.81,0-4,.54-5.35-.24-2.61-1.48-3.1-4.72-1.6-7.4C397.73,199.86,399.2,197.78,400.76,195.35Z"/><path class="cls-5" d="M37.14,238c-1.38-2.31-2.77-4.34-4.17-6.37a5.69,5.69,0,0,1,1.43-7.9.85.85,0,0,1,.87-.2,4.34,4.34,0,0,0,3.49,0,1,1,0,0,1,1.1.2,5.7,5.7,0,0,1,1.88,6.87,1.3,1.3,0,0,1-.09.22Z"/><path class="cls-5" d="M36.1,195.55c1.41,2.35,2.76,4.31,4.14,6.26,1.9,2.69,1.27,5.78-1.32,8.1a.87.87,0,0,1-1.05.14,4.41,4.41,0,0,0-2.1-.33c-.74.09-1.5,1.1-2.17.29-.95-1.13-2.26-2.07-2.44-3.73a6.16,6.16,0,0,1,1-4.35A56.44,56.44,0,0,0,36.1,195.55Z"/><path class="cls-6" d="M55.1,216.06c-1.87,1.42-3.45,3-5.18,4.4a4,4,0,0,1-6.18-1.79,1.55,1.55,0,0,1,.16-1.14,2.82,2.82,0,0,0,.06-2.12c-.88-1.71.4-2.47,1.32-3.4a3,3,0,0,1,3.54-.58,7.78,7.78,0,0,1,1.64,1c.76.58,1.45,1.26,2.2,1.85S54.19,215.39,55.1,216.06Z"/><path class="cls-6" d="M419.67,215.72c-1.82,1.46-3.29,2.88-4.84,4.21-2.24,1.93-5,1.21-6.38-1.47a1.58,1.58,0,0,1,0-1.16,6.71,6.71,0,0,0,.12-2.13c0-.68-.7-1.37-.09-2a9.05,9.05,0,0,1,2.07-2,3.56,3.56,0,0,1,4.22.59C416.24,213.08,417.77,214.34,419.67,215.72Z"/><path class="cls-5" d="M384.57,215.75c1.77-1.32,3.21-2.56,4.68-3.75,2.62-2.14,4.57-1.39,6.47,1.08a1.15,1.15,0,0,1,.19,1.12,6.28,6.28,0,0,0-.05,3.5c.29,1.29-2.43,3.43-4,3.32a3.63,3.63,0,0,1-2.38-1A57.16,57.16,0,0,0,384.57,215.75Z"/><path class="cls-6" d="M20,216.07c1.74-1.31,3.19-2.42,4.56-3.64,2.37-2.11,5.07-1.61,6.65,1.07a1.2,1.2,0,0,1,.11,1.12,8.1,8.1,0,0,0-.23,2.13c-.07.7.74,1.41.13,2-.77.79-1.32,1.86-2.39,2.29a3.75,3.75,0,0,1-4.33-1.14A44.13,44.13,0,0,0,20,216.07Z"/><path class="cls-7" d="M256.44,378.53A23.35,23.35,0,0,1,242.57,386a9.75,9.75,0,0,1-7-2c-.67-.46-.78-1-.08-1.51l5.7-4.49c.19,3.08.8,3.65,3.62,3.72a17.81,17.81,0,0,0,6.29-1.27C252.91,379.9,254.67,379.19,256.44,378.53Z"/><path class="cls-9" d="M401.86,222.09a5.36,5.36,0,0,1-5.47-5.18,5.46,5.46,0,1,1,10.92-.29A5.4,5.4,0,0,1,401.86,222.09Z"/><path class="cls-9" d="M42.69,217.09a5.41,5.41,0,0,1-5.55,5.35,5.55,5.55,0,0,1-5.39-5.57,5.63,5.63,0,0,1,5.61-5.38A5.47,5.47,0,0,1,42.69,217.09Z"/><path class="cls-9" d="M155.06,29.46c0-1.91,2.34-5,4.65-5.58.93-.23,1.6,0,1.76,1,.35,2.12.78,4.23.95,6.36.2,2.58-2.46,5.36-5,5.45-1.35.05-1.72-.21-1.87-1.54C155.36,33.43,155.25,31.69,155.06,29.46Z"/><path class="cls-10" d="M312.49,48.71a4.54,4.54,0,0,1-4.56-3.09c-.24-.93-.08-1.54,1-1.78,1.31-.3,2.6-.72,3.93-.94a5.22,5.22,0,0,1,5,2.49c.34.6.6,1.34-.16,1.63C315.84,47.74,313.93,48.26,312.49,48.71Z"/><path class="cls-9" d="M99.9,107.56c-.18-1.91-.31-3.41-.47-4.91a1.29,1.29,0,0,1,.91-1.48c1.32-.52,2.63-1.06,4.14-1.68.17,1.77.3,3.26.46,4.75a1.4,1.4,0,0,1-1,1.67C102.7,106.39,101.47,106.92,99.9,107.56Z"/><path class="cls-11" d="M241.84,57.78c.52-1.05,1.26-1.75,1.32-2.76,0-.47.1-1-.38-1.29s-.73.15-1.07.31-.69.38-1,.58c-1-2.21-.81-2.7,1.25-3.59l.22-.1c2.68-1.13,3.27-.7,3.16,2.3a7.2,7.2,0,0,1-1,3.4A2.33,2.33,0,0,1,241.84,57.78Z"/><path class="cls-12" d="M232.11,313.92c.17-.25.19-.35.26-.37,3-1.18,3.54-3.56,3.35-6.42a30.46,30.46,0,0,0-1.19-7.07,40.44,40.44,0,0,1-2-13.94c.53-11.55,8.62-19.76,20.14-20.49,1.17-.07,2.59.44,3.44-.45s.47-2.13.7-3.22a31.68,31.68,0,0,1,1.35-4.59,18.18,18.18,0,0,0,1-10.36,8.32,8.32,0,0,0-5.7-6.55c-1.52-.52-1.74-.41-2.07,1.18a52.78,52.78,0,0,1-2.4,8.78,10,10,0,0,1-2.32,3.88c-1.07,1-1.78,1-3.26.19s-2.29-1.9-2-3.18c.16-.75.41-1.44,1.43-.81,1.26.77,2.14.07,2.86-.89A6.57,6.57,0,0,0,247,246.3c.78-7.48,1.68-14.95,1.5-22.48a25.47,25.47,0,0,0-.24-2.62,5.1,5.1,0,0,0-2.63-4.05,8.67,8.67,0,0,1-3.82-4.17,5.06,5.06,0,0,0-1.83-2.15c-2.32-1.69-4.62-3.41-7.14-5.27a3.58,3.58,0,0,1,2.4-.15,59.35,59.35,0,0,1,8.25,1.48c1,.27,1.41.21,1.81-.86.28-.75,1.23-1.22,1.8-1.89a8,8,0,0,0,1.14-1.81c.54-1.19.38-1.5-1-1.79-2.5-.54-5-1-7.52-1.52l-14.81-3c-.86-.17-1.81-.24-1.69-1.53.05-.56.24-1,.86-.85a6,6,0,0,0,4.82-.79c.67-.48,1.19.22,1.71.51a11.9,11.9,0,0,0,7.1,1.77,11.17,11.17,0,0,0,6-2.7c.82.52,1,1.34,1.48,2a8.76,8.76,0,0,0,6.91,3.77c2.44.1,4-1.15,4.88-3.79.61-1.82,0-3.33-1.84-4.76-3-2.36-6.45-2.1-9.83-1.17a2.53,2.53,0,0,1-2.73-.54,11.29,11.29,0,0,0-6.69-2.94,8.22,8.22,0,0,0-6.09,1.7c-1,.8-1.54.64-2.4-.12a9.91,9.91,0,0,0-5.39-2.44,9.08,9.08,0,0,0-8.25,2.92c-1.16,1.24-1.2,1.24-2.58.2a10.06,10.06,0,0,0-6.66-2.25c-3.29.13-5.66,1.46-7,4.52-.15.35-.36.69-.58,1.09-.49-.31-.9-.55-1.3-.81-3.37-2.27-6.91-2.24-10.52-.72-1.43.6-2.81,1.46-2.81,3.24a5,5,0,0,0,2.53,4.6,4.42,4.42,0,0,0,2,.64c3.66.11,7.26-.06,9.9-3.11.68-.79,1.28-.37,1.92-.13a15.77,15.77,0,0,0,9.67.36,7.26,7.26,0,0,0,2.59-1.19,3.05,3.05,0,0,1,3.42.1c.54.43.41,1,.38,1.54,0,.71-.57.86-1.16,1l-11.1,2c-4.09.74-8.18,1.47-12.27,2.23-.52.1-1.13,0-1.63.61a9.55,9.55,0,0,0,2.17,3.29,5,5,0,0,1,.83.85,1,1,0,0,1-.17,1.11c-.26.29-.57.21-.87.08a8.79,8.79,0,0,1-4.4-3.57,10.19,10.19,0,0,0-2.61-2.75,17.43,17.43,0,0,1-4.81-5.29,5,5,0,0,1-.42-4.59,5,5,0,0,1,3.08-2.48,81.31,81.31,0,0,1,18.76-4.86c18.59-2.68,36.83-.7,54.87,4,1.08.28,2.19.49,3.25.85,2.24.78,2.86,2.08,2,4.28a30.11,30.11,0,0,1-3,6.28c-.82,1.2-1.69,2.38-3.22,2.69-.87.17-1.06.9-1.44,1.48-1.41,2.17-3,4.19-5.47,5.14-.09.8.57.68.95.84,1.55.65,3.09,1.3,4.58,2.09,1,.52,1.37.21,1.57-.92.57-3.26.57-3.26,2-5,2.12,1.5,2.17,1.49,3.18-1,2-5.08,3.72-10.23,3.95-15.74,0-1.08,0-2.16,0-3.47,6.72,9.35,7.68,25.27-1.72,34.51-.47-.74-.88-1.49-1.38-2.18a2.55,2.55,0,0,0-4.11-.55,7.64,7.64,0,0,0-2,2.92,22.23,22.23,0,0,0-1.54,5.53A65.5,65.5,0,0,0,252,235c0,.91.15,1.45,1.27,1.56a11.54,11.54,0,0,1,9.3,6c.12.2.26.39.6.89a31.85,31.85,0,0,0,3.79-8.47,2.57,2.57,0,0,0-.8-2.36,1.08,1.08,0,0,0-1.81-.16,5.84,5.84,0,0,0-1.71,2.57c-.2.58-.35,1.18-.54,1.84-3.81-4.5-2.6-13.12,2.39-17.57.83.55.75,1.91,2,2.36.24-1.5-.15-2.9.16-4.27a27.12,27.12,0,0,1,1.19-4.64,30,30,0,0,0,1.92-14.12,5.58,5.58,0,0,1,0-2.28,5.32,5.32,0,0,1,1.59,2.34,43.35,43.35,0,0,1,4,14.49,65,65,0,0,1,0,13.41,30.67,30.67,0,0,1-1.32,5.59,98.48,98.48,0,0,1-6.74,17.17,75.78,75.78,0,0,0-5.58,15c-.24.91-.48,1.63.88,1.93A18.48,18.48,0,0,1,277,278.78a1.66,1.66,0,0,0,.3.38c.78.13,1.11-.52,1.5-1a16.35,16.35,0,0,0,3-5.15,5.5,5.5,0,0,0-2.14-6.75,2.83,2.83,0,0,0-3.34-.26,2.6,2.6,0,0,0-1.12,2.93c.08.45.16.91.31,1.71a11.73,11.73,0,0,1-4.29-19.55,11.54,11.54,0,0,0,2.9-3.53c.74.48.47,1.43,1.11,1.79.09-.06.18-.09.19-.14.61-4.78,3.68-7.81,7.37-10.43,4.51-3.2,9.29-4.86,13.85-4.74.05.73-.61.8-1,1a32.4,32.4,0,0,0-3.94,2.73c-3.79,3.11-5,7.06-3.84,11.78a11.12,11.12,0,0,1,.25,4c.78.46,1.33-.47,2.05-.22.09.08.29.17.3.28.34,4.93,1.23,9.85.46,14.82-.21,1.34-.4,2.69-.7,4a17.17,17.17,0,0,1-10,12.42,2.58,2.58,0,0,0-1.76,2.89,55.31,55.31,0,0,1-2.07,16.84,119.7,119.7,0,0,1-15.17,34.56A63,63,0,0,1,252.4,350a35.5,35.5,0,0,1-11,7.16c-3.79,1.65-7.21.47-10.23-2.07a16.52,16.52,0,0,1-3.42-4c-2.18-3.54-4.34-7.09-6.53-10.63-.37-.59-.53-1.35-1.36-1.71-.65,1.55-1.28,3.1-1.95,4.63a40.82,40.82,0,0,1-5.64,9.44c-7,8.61-16.29,9.53-25.38,4.8A34.14,34.14,0,0,1,176.74,349a66.54,66.54,0,0,1-9.83-15.85A28.88,28.88,0,0,1,164.26,322c0-1-.19-1.74-1.33-2.21-10.22-4.21-15.18-14-13.93-25.85a30.25,30.25,0,0,1,3.77-11.8c.45-.8.75-1.42,0-2.34-2.65-3.39-3.65-7.42-4.07-11.61a44.37,44.37,0,0,1,.21-10.77c.18-1.25.15-2.53.22-3.76.87-.7,1.54.44,2.39.06a20,20,0,0,1,.51-5.16,10.58,10.58,0,0,0-2.6-9.34c-1.87-2-4.22-3.38-6.87-5a7.44,7.44,0,0,1,3.24,0,27.64,27.64,0,0,1,16,9.06c1.53,1.65,1.87,3.85,2.4,5.94,1,0,.49-1.2,1.29-1.5a13.52,13.52,0,0,0,2.72,3.26,11.59,11.59,0,0,1,.43,16.92l-.94,1A11.4,11.4,0,0,0,171,268a28.6,28.6,0,0,1,6.14-1c1.05,0,1.44-.44,1.1-1.51s-.57-2.33-.93-3.47a89,89,0,0,0-5.55-13.78,89.35,89.35,0,0,1-7.25-19.78,37,37,0,0,1-.69-9.31,48.68,48.68,0,0,1,3.67-19c.41-1,.9-1.87,1.39-2.79.18-.33.43-.63,1-1.39,0,1.06,0,1.64,0,2.22-.31,5.08,0,10,2,14.84a16.59,16.59,0,0,1,1.12,8.46c1.48-.21,1.26-1.69,2.08-2.24,4.94,3.9,6.23,12.47,2.46,17.68-.44-1.31-.56-2.62-1.37-3.58-.53-.63-.94-1.63-2-1.35-.79.2-1.58,1.82-1.38,2.8a14.06,14.06,0,0,0,.83,2.74c.63,1.47,1.36,2.89,2.07,4.32a2,2,0,0,0,.88,1.11,2.24,2.24,0,0,0,.51-.45,11.81,11.81,0,0,1,9.52-6.06c.81-.07,1.11-.43,1.1-1.21,0-5.13-.19-10.24-1.83-15.18a9.5,9.5,0,0,0-1.95-3.55c-1.76-1.91-3.44-1.78-4.9.34-.4.58-.54,1.33-1.18,1.74-8.93-8.62-8.78-24.18-1.72-34.52a46.48,46.48,0,0,0,.38,7.08,60.9,60.9,0,0,0,3.72,12.38c1,2.37,1,2.37,3.07.86,1.4,1.16,1.76,2.79,2,4.47.3,1.88.5,2,2.25,1.11,5.65-2.88,11.76-4,18-4.73a1.06,1.06,0,0,1,1.21.35c-2,1.46-3.93,2.94-5.92,4.36a8.9,8.9,0,0,0-3.29,3.67,7.72,7.72,0,0,1-3.52,3.5,5,5,0,0,0-2.54,3.85,31.28,31.28,0,0,0-.31,5.74c.14,6.4.79,12.77,1.45,19.13a7.34,7.34,0,0,0,1.35,3.55c.92,1.3,1.43,1.53,3,1,.91-.33,1.17,0,1.34.72.31,1.32-.28,2.33-1.87,3.26s-2.35.89-3.45-.18a11,11,0,0,1-2.37-4.13,56.27,56.27,0,0,1-2.32-8.55c-.31-1.47-.53-1.59-1.92-1.14a8.41,8.41,0,0,0-5.86,6.69,17.42,17.42,0,0,0,.71,9.46,39.24,39.24,0,0,1,2.1,9.09c.1,1.07.46,1.51,1.54,1.68a39.87,39.87,0,0,1,7.15,2C199.25,272,204.7,277,209.4,283c7.66,9.8,12.15,20.79,12.38,33.34a3.54,3.54,0,0,0,1,2.34c3.32,4,6.61,8,9.9,12a17.57,17.57,0,0,0,3.59,3.51c2.42,1.66,4,1.68,6.39.06a23.16,23.16,0,0,0,4.84-4.63q2.6-3.14,5.14-6.32c4.71-5.89,7.84-12.61,10.32-19.66a61.43,61.43,0,0,0,3.59-13.9c.06-.56.05-1.12.13-1.67.21-1.46-.34-2.28-1.76-2.91a14.16,14.16,0,0,1-7.71-8.44c-.67-1.83-1-1.92-2.79-1.12a7.49,7.49,0,0,0-3.65,3.67A17.46,17.46,0,0,0,249,288.9a37.29,37.29,0,0,1-1.41,14.24,27,27,0,0,1-1.51,4C243.8,311.81,239.1,315.66,232.11,313.92Z"/><path class="cls-12" d="M254.67,175.37l5.63,9.8c-.64.61-1.13.09-1.61,0a146.64,146.64,0,0,0-30.7-4.94c-2.47-.16-4.95-.34-7.42-.41a117,117,0,0,0-39.47,5.47,1.59,1.59,0,0,1-1.58,0l5.41-11c2.1,1.81,3.39,4.07,5.44,6.05a50.57,50.57,0,0,0,3.48-6.08c-1.92-.29-3.63.52-5.75.12,1.94-3.41,3.91-6.63,6-10.18l5.62,6.66,3.1-5.25c-1.86-.65-3.64-.1-5.24-.51-.48-.7.05-1.13.28-1.58,1.17-2.28,2.34-4.56,3.61-6.78a2.15,2.15,0,0,0-.23-2.78c-1.86-2.34-1.74-2.3.45-4.34a5.78,5.78,0,0,1,4.53-1.57c10,.38,20,.68,30,.95a3.67,3.67,0,0,1,2.74,1.14,31.29,31.29,0,0,0,2.81,2.26c-1.39,1.32-2.32,2.31-3.36,3.15-.83.67-.74,1.2-.21,2,1.33,2,2.6,4,3.86,6.07.36.59.95,1.09.91,2h-5.62a29.54,29.54,0,0,0,3.77,5.17l5.39-6.37L253,175h-6.31c.69,2.11,2,3.79,2.9,5.87C251.71,179.28,252.7,177,254.67,175.37Z"/><path class="cls-13" d="M212.38,261.3c-4.49.9-5.37-2.55-6.59-5.72-.67,1.1-.19,2-.57,2.9-1.68-.3-2.31-1.57-2.73-3-.77-2.55-.06-4.88,1.15-7.14.32-.59,1-1,1.06-2-3.06.84-3.4,3.3-3.74,5.95-3.14-2.68-1.72-5.6-.8-8.48-1.07.22-1.33,1.15-2.06,1.49-1.63-3.7.08-6.31,5.88-8.81-2.53-.76-4.41.16-6.1,2-.53-3.56.28-4.62,5.61-7.7-.56-.47-1.2-.26-1.79-.24s-1.22.13-1.89.21c1.2-2.52,2.4-3.3,4.61-3.07s3.3,1.7,2.68,3.81a30.13,30.13,0,0,0-1.4,8.25,24.61,24.61,0,0,0,.19,3.83c.78,5.08,3.62,8.42,8.61,9.82a17.33,17.33,0,0,0,8.3.35,11.25,11.25,0,0,0,9.5-10.56c.24-2.48-.12-5,0-7.43A10.63,10.63,0,0,1,233,232a10.06,10.06,0,0,0,.69-5c2.69,1.22,3,3,1.66,8.83,1.92-1,1.94-2.84,2.41-4.45,3.09,2.15,3,5.12-.35,9.56,1.6.19,1.6.19,3-1.47a4.17,4.17,0,0,1-1.25,5.4,10.58,10.58,0,0,1-4.08,1.95,6,6,0,0,0-2.25.74c1.68,1.69,3.13,1.69,6.59,0a4.3,4.3,0,0,1-1.63,4.41,12,12,0,0,1-4.16,2c.4,1.36,1.46.78,2.08,1.16a5.54,5.54,0,0,1-7.46,2.28,31.35,31.35,0,0,0-4.24-2.29c.39,2.19,2.07,3.64,5.57,5-2.25,2.39-5.69,2.27-10.18-.42-.09,1.28,1,2,1.3,3a5.18,5.18,0,0,1-6.14-2.12,17.08,17.08,0,0,1-2.26-4.48c-.16-.54-.26-1.1-.87-1.34C209.74,256.83,209.88,257.84,212.38,261.3Z"/><path class="cls-13" d="M223,236.74a4.63,4.63,0,0,0,3.91-2.68c.27-.54.19-1.42,1-1.51a14.1,14.1,0,0,1,2.86,0c.49,0,.5.56.47,1a10.4,10.4,0,0,1-.82,3.24,19.77,19.77,0,0,1-6.3,7.72,3.91,3.91,0,0,1-2,.61c-4,.66-7.1-1-9.75-3.86a14.34,14.34,0,0,1-4-7.47c-.28-1.77-.09-1.87,1.64-2a2.52,2.52,0,0,1,3,1.75,5.42,5.42,0,0,0,2.32,2.68c.94.56,1.46.28,1.54-.83s.13-2.4.12-3.6c0-.94.44-1.18,1.32-1.24,4.49-.32,4.48-.34,4.52,4A3.57,3.57,0,0,0,223,236.74Z"/><path class="cls-13" d="M213.91,144.25l6.42-8.61,6,8.72c2.18-1.88,3.35-4.49,5.56-6.7,1.76,3,3.3,5.82,5,9-11.38.23-22.26.26-33.47-.63L208,136Z"/><path class="cls-14" d="M219.25,187.73c1.8,5.08,3.41,10,3.09,15.32-.3,4.94-.05,9.92-.07,14.88,0,1.71,0,1.72-1.71,1.77-1,0-2.08,0-3.12,0s-1.45-.36-1.41-1.39c0-1.44,0-2.88,0-4.32,0-4.8,0-9.6,0-14.4a13.31,13.31,0,0,1,.84-4.92C217.71,192.38,218.46,190,219.25,187.73Z"/><path class="cls-14" d="M220.08,113.94c-1.71-3.08-3.1-5.68-4.6-8.22-.56-.95-.14-1.66.2-2.46A36.71,36.71,0,0,0,219,89.84c0-.72,0-1.44,0-2.16a4.14,4.14,0,0,0-1.44-3.13,3.37,3.37,0,0,1,.17-4.57,3.46,3.46,0,0,1,4.4-.36,3.22,3.22,0,0,1,.73,4.82,4.56,4.56,0,0,0-1.16,3.47c-.1,5.7.21,11.35,2.27,16.76a1.9,1.9,0,0,1,0,1.62Z"/><path class="cls-15" d="M219.52,132.86H208a14,14,0,0,1-1.91-.06,3.1,3.1,0,0,1-2.78-2.83,3.32,3.32,0,0,1,2.22-3.56,6.71,6.71,0,0,1,2.37-.22q11.72,0,23.45,0a9.5,9.5,0,0,1,2.37.22,3.22,3.22,0,0,1,2.35,3.46,3.15,3.15,0,0,1-2.71,2.91,11.9,11.9,0,0,1-1.91.08Z"/><path class="cls-14" d="M220.4,281.49c-3-5.15-4.7-10-4-15.49.21-1.77.37-1.83,2.1-1.79a14.71,14.71,0,0,0,4.05-.18c.79-.21,1.23,0,1.41.79a13.54,13.54,0,0,1,.52,2.57C224.59,272.31,223,276.77,220.4,281.49Z"/><path class="cls-16" d="M214.25,109l5.44,7.21c2-2.25,3.22-4.85,5-7,2.18,2,2.32,2.53,1.32,4.92a68.18,68.18,0,0,1-3.3,6.91,18.22,18.22,0,0,1-1.27,2c-1.37,1.84-1.88,1.82-3-.1-1.29-2.2-2.4-4.54-3.88-6.6C212.87,114,213.09,111.78,214.25,109Z"/><path class="cls-17" d="M229.51,201.58c1.35,3.55,2.5,7,2.28,10.79-.2,3.51-.08,7,0,10.55,0,1.22-.36,1.82-1.63,1.69-.32,0-.64,0-1,0-2.08,0-2.1,0-2.11-2.15,0-3.92.12-7.84,0-11.75C226.88,207.36,228.5,204.59,229.51,201.58Z"/><path class="cls-17" d="M210.18,201.64a26.33,26.33,0,0,1,2.1,12.08c-.14,3.11-.06,6.24,0,9.36,0,1.13-.38,1.63-1.52,1.54a7.73,7.73,0,0,0-1.44,0c-1.3.14-1.61-.51-1.6-1.7,0-4.64-.07-9.28.06-13.92C207.84,206.35,209.23,204,210.18,201.64Z"/><path class="cls-17" d="M221.13,134h11c-2,2.77-3.87,5.14-5.78,7.51A26.84,26.84,0,0,1,221.13,134Z"/><path class="cls-16" d="M219.62,221.38h1.91c2.42,0,3,.68,2.42,3a5,5,0,0,1-4.75,3.49,2.15,2.15,0,0,1-2-1c-.81-1.32-2.27-2.29-2-4.16.11-.87.4-1.31,1.33-1.27s2.07,0,3.11,0Z"/><path class="cls-15" d="M227.16,115.11l4.79,9.23h-8.72A88.3,88.3,0,0,1,227.16,115.11Z"/><path class="cls-17" d="M212.44,115.13c1.72,3.28,3.33,6.07,4.69,9.27h-8.51c0-1.64,1.07-2.91,1.62-4.33S211.54,117.15,212.44,115.13Z"/><path class="cls-14" d="M220.17,246.44c3.61,0,3.61,0,3.59,3.71,0,.4,0,.8,0,1.19,0,.85-.3,1.37-1.21,1.42l-.47.05c-5,.62-5.58.07-5.36-4.9.05-1.14.41-1.59,1.54-1.49C218.89,246.49,219.53,246.44,220.17,246.44Z"/><path class="cls-17" d="M214.64,141.56a92.45,92.45,0,0,1-5.61-7.35c3.3-.07,6.25-.06,9.44.16A59.51,59.51,0,0,1,214.64,141.56Z"/><path class="cls-18" d="M233.93,215.54c-.68-2.38-.67-2.38,1.26-3.2.58-.25,1.14-.57,1.72-.82s1.2-.95,1.82,0,.09,1.51-.57,2A10.42,10.42,0,0,1,233.93,215.54Z"/><path class="cls-19" d="M210.36,230.21c-2.19,0-2.25-.1-2.27-1.86,0-1.1.36-1.64,1.51-1.52.31,0,.63,0,.95,0a1.89,1.89,0,0,1,1.6,2.91C211.68,230.51,210.84,230,210.36,230.21Z"/><path class="cls-20" d="M229.52,230.21c-2.16,0-2.34-.24-2.22-2.14.06-.92.46-1.26,1.32-1.21.39,0,.79,0,1.18,0,.59,0,1.36-.21,1.58.63a3.18,3.18,0,0,1-.08,2.31C230.89,230.54,230,230,229.52,230.21Z"/><path class="cls-21" d="M205.21,215a11.38,11.38,0,0,1-4.49-1.84.91.91,0,0,1-.33-1.41.9.9,0,0,1,1.37-.43,14.13,14.13,0,0,0,2.4,1.06C205.52,212.8,205.64,213.66,205.21,215Z"/><path class="cls-22" d="M225.84,216.11c0,.75-.57,1-1.26,1a.77.77,0,0,1-.91-.81c0-.9.6-1,1.25-1S225.82,215.44,225.84,216.11Z"/><path class="cls-17" d="M213.95,217.11c-.65,0-1-.32-1-1s.38-.78.93-.77a.78.78,0,0,1,.87.86C214.74,216.72,214.6,217.14,213.95,217.11Z"/><path class="cls-23" d="M372.58,306l3-4.86c.32-.52.68-.88,1.35-.5,2.78,1.54,5.57,3.07,8.31,4.84-4.18.6-8.37.22-12.47,1Z"/><path class="cls-24" d="M297.41,394.68l-1.84-.93c-.3-.15-.54-.35-.44-.71a1.57,1.57,0,0,1,.92-1,.56.56,0,0,1,.76.33A3.26,3.26,0,0,1,297.41,394.68Z"/><path class="cls-25" d="M41.57,292.48c.11-.71.72-.95,1-1.45.16-.35.33-.82.83-.59a1.31,1.31,0,0,1,.78,1.12c0,.53-.44.59-.79.72A2.43,2.43,0,0,1,41.57,292.48Z"/><path class="cls-26" d="M286.78,55.14a3.41,3.41,0,0,1-.22-2.12c.06-.48.55-.48,1-.38s.77.38.57.83A3.43,3.43,0,0,1,286.78,55.14Z"/><path class="cls-27" d="M405.18,216.58A3.34,3.34,0,0,1,402,220a3.37,3.37,0,1,1-.16-6.74A3.28,3.28,0,0,1,405.18,216.58Z"/><path class="cls-28" d="M37.16,213.66a3.35,3.35,0,0,1,3.51,3.17,3.46,3.46,0,0,1-3.4,3.57,3.43,3.43,0,0,1-3.36-3.34A3.26,3.26,0,0,1,37.16,213.66Z"/><path class="cls-29" d="M160,27.72a1.35,1.35,0,0,1,1.11,1.1c.45,1.78-2.16,4.72-4,4.49a1,1,0,0,1-1-1.11c.05-1.34,2.14-4,3.4-4.39C159.73,27.77,159.89,27.75,160,27.72Z"/><path class="cls-30" d="M315.21,46.46a.87.87,0,0,1-.71.84,3.44,3.44,0,0,1-3.76-2.24.86.86,0,0,1,.47-1C312.23,43.58,315.18,45.36,315.21,46.46Z"/><path class="cls-31" d="M211.26,321c-.9,3.27-1.28,6.42-2,9.51a44.68,44.68,0,0,1-2.92,8.62,21.94,21.94,0,0,1-3.51,5.42,12,12,0,0,1-12.61,3.78c-4.85-1.23-8.57-4.19-11.81-7.84a42.3,42.3,0,0,1-6.5-9.75,18.57,18.57,0,0,1-1-14.67,3.23,3.23,0,0,1,2.22-2.27,15.77,15.77,0,0,0,5.26-2.81c4.18-3.37,4-8.54-.27-11.75-2.17-1.61-2.37-2.81-.84-5,2.61-3.78,7.27-4.34,10.87-1.3,7.17,6.06,6.77,15.86-.9,21.62a24,24,0,0,1-12.5,4.41,13.5,13.5,0,0,1-1.68.08c-1.24,0-1.7.64-1.76,1.77a16.49,16.49,0,0,0,.21,4.3,18.44,18.44,0,0,0,1.41,4.32A36,36,0,0,0,185.8,344a13.43,13.43,0,0,0,10.51,2.17,11.22,11.22,0,0,0,7.12-4.89,17.77,17.77,0,0,0,2.78-6.59c1-5,1.88-10.06,2.86-15.08a2.67,2.67,0,0,0-.81-2.77c-3.79-3.57-7.61-7.09-12.37-9.38-.41-.2-1.1-.35-.84-.93.37-.83,1-.16,1.39.06a50.91,50.91,0,0,1,22,21.37c3.62,6.77,7.35,13.48,11.42,20a20,20,0,0,0,2.74,3.63,6.47,6.47,0,0,0,7.06,1.61,20.08,20.08,0,0,0,5.28-2.79,50.93,50.93,0,0,0,12.25-12.73,77.16,77.16,0,0,0,6.87-11.8c4.15-8.85,7.9-17.84,9.68-27.53a40,40,0,0,0,.3-15.26c-1.3-6.43-4.95-10.79-11.37-12.65-.38-.11-.76-.25-1.13-.39-.58-.22-.57-.72-.5-1.2.1-.66.59-.64,1.09-.53a16.36,16.36,0,0,1,11.61,8.48,24.29,24.29,0,0,1,2.61,10.87,55.64,55.64,0,0,1-1.88,15.67,112.27,112.27,0,0,1-17.16,37.78,54.94,54.94,0,0,1-6.78,7.75,34.1,34.1,0,0,1-10,6.43c-2.89,1.29-5.48.31-7.8-1.56a18.53,18.53,0,0,1-3.83-4.58c-2.76-4.31-5.32-8.74-7.85-13.19a7.88,7.88,0,0,0-1.49-2.22c-.61.37-.63,1-.81,1.59a54.78,54.78,0,0,1-5.36,12.28,30.35,30.35,0,0,1-4.43,5.65c-5.44,5.42-11.81,6.55-19.19,3.49-4.38-1.82-7.82-4.95-10.89-8.48A63.18,63.18,0,0,1,169,332.71a28.09,28.09,0,0,1-2.6-9.68c-.47-6.79,2.21-12.13,7.44-16.3a18.79,18.79,0,0,1,5-2.94c-.31.83-.85,1-1.24,1.23a24.64,24.64,0,0,0-7.41,7.4c-3.27,5.3-3.5,10.89-1.34,16.58a60,60,0,0,0,10.67,17.26,34.94,34.94,0,0,0,7.62,6.9c4,2.63,8.37,3.94,13.21,2.62A17.4,17.4,0,0,0,209,350c4.61-5.38,6.86-11.84,8.35-18.63a2.21,2.21,0,0,0-.33-1.82C215.1,326.72,213.18,323.88,211.26,321Z"/><path class="cls-3" d="M193.7,344.42a11,11,0,0,1-6-1.73,32.87,32.87,0,0,1-13.2-14.76,15.19,15.19,0,0,1-1.28-5.33c-.06-1,.34-1.44,1.33-1.54a37.73,37.73,0,0,0,4.5-.64c6.26-1.42,11.47-4.36,14.52-10.3.51-1,1.09-.95,1.92-.53a39.26,39.26,0,0,1,8,5.69c3.61,3.15,3.62,3.16,2.78,7.84-.65,3.61-1.34,7.22-2,10.83a16.07,16.07,0,0,1-2.67,6.35A9.44,9.44,0,0,1,193.7,344.42Z"/><path class="cls-3" d="M177.88,301.77a43.73,43.73,0,0,0-4.93,3,22.14,22.14,0,0,0-5,5.12c-.68,1-1.29,1-2.13.32a8.68,8.68,0,0,1-2.37-2.68c-3.19-6.08-4.48-12.27-1.2-18.78a3,3,0,0,1,3.51-2,15.83,15.83,0,0,0,13.5-4.81,11.49,11.49,0,0,0,2.32-3.33,1.54,1.54,0,0,1,2-1c5.54,1.16,10.46,3.32,14.13,7.88a45.59,45.59,0,0,1,8.6,18.27,2,2,0,0,1-.06.66c-.59.26-1-.13-1.33-.37a77.34,77.34,0,0,0-8.92-4.65,3.87,3.87,0,0,1-2.09-2.13,17.61,17.61,0,0,0-4.11-5.55c-4.77-4.53-11.63-3.52-14.82,2.19-1.42,2.55-1.12,4.45,1.05,6.4C176.54,300.74,177.05,301.11,177.88,301.77Z"/><path class="cls-32" d="M195.48,301.53a57,57,0,0,1,7.25,3.62,58.94,58.94,0,0,1,6.26,4.24,1.69,1.69,0,0,0,.26-1.7c-1.28-8.18-4-15.79-9.06-22.44a24.23,24.23,0,0,0-15.31-9.53c-.72-.13-2,.16-1.81-1.26.21-1.6,1.33-.94,2.2-.75,6.41,1.39,11.3,5.08,15.23,10.17,4.53,5.85,7.23,12.58,9.13,19.66.58,2.16,1,4.36,1.45,6.55.13.62.09,1.3.71,1.71l5.84,3.84a33,33,0,0,0-.89-9.09c-2.69-12.38-9.26-22.32-19.21-30.08a30,30,0,0,0-11.3-5c-.7-.18-1.41-.31-2.1-.5a.84.84,0,0,1-.61-1.12c.11-.49.49-.57.92-.48.71.14,1.42.24,2.12.42a34.27,34.27,0,0,1,16.5,9.26c8.21,8.4,13.78,18.17,16,29.77a36.45,36.45,0,0,1,.74,8.34,3.17,3.17,0,0,0,.88,2.35c3.45,4.1,6.84,8.25,10.22,12.4a20,20,0,0,0,4.91,4.53,6.66,6.66,0,0,0,7.66-.08,25.15,25.15,0,0,0,5.78-5.36c2-2.46,4-5,6-7.51,5.32-7.06,8.69-15.06,11.23-23.45,1.32-4.37,2.58-8.74,2.34-13.4a21.58,21.58,0,0,0-.7-4.73c-1-3.61-2.94-6.54-6.41-8.27-.38-.19-.74-.47-.56-.91s.68-.28,1-.14a11.7,11.7,0,0,1,7.18,7.54,32.92,32.92,0,0,1,.65,15,50.72,50.72,0,0,1-4,13.27,113.51,113.51,0,0,1-16.5,26.05,26.55,26.55,0,0,1-4.7,4.44c-4.12,3-8.39,2.55-11.75-1.24-3.92-4.43-7.65-9-11.48-13.53a86.92,86.92,0,0,0-20.73-18,13.06,13.06,0,0,0-3.92-1.78C195.34,303.92,195.14,303.08,195.48,301.53Z"/><path class="cls-33" d="M239.92,308.93a8.48,8.48,0,0,0,3-4.66,33.32,33.32,0,0,0,1.47-10.65,63.42,63.42,0,0,1,.37-8.86,17.81,17.81,0,0,1,5.42-10.95,8.93,8.93,0,0,1,4.87-2.42c.48-.07,1-.09,1.16.53a.89.89,0,0,1-.73,1.26,9,9,0,0,0-6.19,4.54,17.56,17.56,0,0,0-2.37,10.85,37.19,37.19,0,0,1-1.31,14.23,14.31,14.31,0,0,1-4,7,6.14,6.14,0,0,1-3.91,2c-.42-.7-.09-1.32,0-1.94a28,28,0,0,0-1.15-10.43,38.74,38.74,0,0,1-1.88-12.28c.25-9.88,6.21-19.4,20.11-19.52a6.53,6.53,0,0,1,.72,0c.33,0,.62.14.66.54s0,.83-.51.94a14.27,14.27,0,0,1-1.66.24,19.48,19.48,0,0,0-12.8,6.87,15.87,15.87,0,0,0-3.52,8.79,25.29,25.29,0,0,0,.65,10.47,36.38,36.38,0,0,1,1.32,11.62A2.21,2.21,0,0,0,239.92,308.93Z"/><path class="cls-34" d="M150.79,297.69c.23-14,8.93-26.26,24.87-28.58a17,17,0,0,1,2.39-.12.68.68,0,0,1,.77.71c0,.48-.31.7-.75.75-.24,0-.48,0-.72,0A26.25,26.25,0,0,0,153.88,290a28,28,0,0,0-1,11.85A19.34,19.34,0,0,0,162.53,316c.27.17.58.28.84.46.47.33,1.48.43,1,1.25-.32.61-1,0-1.47-.19a20.15,20.15,0,0,1-11.36-13.45A36.06,36.06,0,0,1,150.79,297.69Z"/><path class="cls-34" d="M156.31,297.62c.09-10.93,6.2-19.25,17.06-23.26a21.85,21.85,0,0,1,4.14-1.18c.52-.08,1,0,1.06.6a.93.93,0,0,1-.68,1.11l-1.16.28a25.42,25.42,0,0,0-17,13.67c-4.1,8,0,19.83,5.32,23.32l.2.13c.37.28.91.57.5,1.11s-.86.13-1.29-.06a9.81,9.81,0,0,1-2.74-1.9A17.8,17.8,0,0,1,156.32,300C156.24,299.22,156.31,298.41,156.31,297.62Z"/><path class="cls-31" d="M158.68,274.34c-2.18-3.11-1.29-6.92,1.9-8.47a2.66,2.66,0,0,1,3.9,2.34,3.51,3.51,0,0,1-1.88,3.53A41,41,0,0,0,158.68,274.34Z"/><path class="cls-35" d="M177.13,277.34c-1.49,3.34-4.53,4.94-8.42,4.44C170.62,279.36,174.51,277.31,177.13,277.34Z"/><path class="cls-36" d="M193.32,211.42c0,1.42-2.34,3.16-3.61,2.75-.74-.24-1-.95-.45-1.45a7.4,7.4,0,0,1,3.26-1.85A.58.58,0,0,1,193.32,211.42Z"/><path class="cls-37" d="M247.22,210.86a7.43,7.43,0,0,1,3.22,2c.49.57,0,1.05-.54,1.26-1.25.44-3.62-1.32-3.65-2.69C246.23,210.95,246.58,210.83,247.22,210.86Z"/><path class="cls-38" d="M174.39,310.84a13,13,0,0,1,4.29-3.8C177.93,309.12,177.18,309.8,174.39,310.84Z"/><path class="cls-39" d="M264.77,280c-1.58-.67-2.38-2-3.23-3.9A5.34,5.34,0,0,1,264.77,280Z"/><path class="cls-40" d="M220,153.45c-1.59,0-3.18,0-4.77,0-1.31,0-2-.66-2-1.53s.73-1.49,2-1.5q4.89-.06,9.79,0c1.36,0,2,.57,2,1.52s-.65,1.48-2,1.52C223.34,153.49,221.67,153.45,220,153.45Z"/><path class="cls-41" d="M214,155.88l-5.36,6.5a74.55,74.55,0,0,1-5.3-6.5Z"/><path class="cls-42" d="M215.24,156h10.65a47.2,47.2,0,0,1-5,5.66c-.56.61-1,.22-1.35-.26Z"/><path class="cls-43" d="M226.25,173.06l9.31.62a36.69,36.69,0,0,1-4.33,4.76.83.83,0,0,1-1.28-.1A40,40,0,0,1,226.25,173.06Z"/><path class="cls-41" d="M215.76,172.72l9.25.38c-.51,1.54-1.82,2.22-2.77,3.19-2.13,2.16-1.94,2.31-4.11-.18-.87-1-1.77-2-2.66-3Z"/><path class="cls-44" d="M228.14,156a36.43,36.43,0,0,1,7.42.25c0,.26.06.45,0,.56a22.75,22.75,0,0,1-3.21,4.68c-1.71-.88-2.35-2.71-3.58-4A1.64,1.64,0,0,1,228.14,156Z"/><path class="cls-45" d="M204.9,173c1.33,0,2.66,0,4,0a15.53,15.53,0,0,0,4-.41,15.6,15.6,0,0,1-2.84,5.17c-.44.29-.75.06-1-.21l-4.38-3.94Z"/><path class="cls-45" d="M244.72,174.55a26.2,26.2,0,0,1-3.62,4.85c-1.49-1.54-2.38-3.38-3.73-5.26C239.93,173.7,242.11,174.38,244.72,174.55Z"/><path class="cls-46" d="M223.72,165.6l-3.24,3.7c-.49.56-.94.43-1.4-.05-1.1-1.14-2.2-2.27-3.53-3.64,2.79-.66,5.37.1,7.87-.46Z"/><path class="cls-42" d="M205,165.45h7.51l-3,4.7A31.81,31.81,0,0,1,205,165.45Z"/><path class="cls-42" d="M235.21,165.83c-1.15,1-2.31,2-3.43,3a1,1,0,0,1-1.64,0c-1-1-2.09-1.93-3.54-3.26,3.26-.47,5.88,0,8.49-.17Z"/><path class="cls-47" d="M195.74,174a28.18,28.18,0,0,1,7-.49,32.09,32.09,0,0,1-3.27,4.81A22,22,0,0,1,195.74,174Z"/><path class="cls-48" d="M206,153.32a3,3,0,0,1-1.64-.25c-.51-.33-1.3-.57-1.09-1.34a1.61,1.61,0,0,1,1.38-1.16,14,14,0,0,1,1.66,0c.46,0,1.09-.14,1.3.33a2.61,2.61,0,0,1-.13,2.06C207.18,153.55,206.47,153.24,206,153.32Z"/><path class="cls-44" d="M232.29,150.6c3.51-.2,3.51-.2,5,1.22-1,1.53-2.35,2.15-3.91,1.58C232.14,152.93,233.29,151.52,232.29,150.6Z"/><path class="cls-49" d="M221.07,128.42c1.51,0,3,0,4.52,0,.57,0,1.22.19,1.27.83.07.85-.71,1-1.32,1-3,0-6,0-9,0a1.79,1.79,0,0,1-.69-.14c-.36-.16-.76-.32-.72-.82a.84.84,0,0,1,.77-.78c.86-.1,1.74-.12,2.6-.14s1.75,0,2.62,0Z"/><path class="cls-50" d="M231.44,128.44c.8,0,1.6,0,2.39,0a.82.82,0,0,1,.81.74.84.84,0,0,1-.77,1,27.78,27.78,0,0,1-5.49,0,.8.8,0,0,1-.73-.82.9.9,0,0,1,.91-.92c1-.06,1.91,0,2.87,0Z"/><path class="cls-51" d="M209.51,130.34c-1,0-1.91-.06-2.85-.17a.79.79,0,0,1-.69-.84.81.81,0,0,1,.71-.83,30.34,30.34,0,0,1,5.48,0,.88.88,0,0,1,0,1.75c-.87.07-1.75,0-2.62,0Z"/><path class="cls-13" d="M172.92,317.48a2.36,2.36,0,0,1,1.6-2.62,18.8,18.8,0,0,0,5.8-3.77,9.71,9.71,0,0,0,2.17-11.45,2.72,2.72,0,0,0-1.93-1.86c-1.74-.44-2-2-.68-3.3a5.29,5.29,0,0,1,6.81-.22c5.75,4.67,5.85,14.44.06,19A20.46,20.46,0,0,1,172.92,317.48Z"/></svg>