<svg xmlns="http://www.w3.org/2000/svg" viewBox="0 0 568.41 337.42"><title>Artboard 1</title><g id="Layer_5" data-name="Layer 5"><path id="surface1" d="M244.3,283.07l-30.45,5.78a1.11,1.11,0,0,0-.88,1.09v40.58a1.11,1.11,0,0,0,.88,1.09l30.45,5.78a1.2,1.2,0,0,0,.2,0,1,1,0,0,0,.68-.24,1.13,1.13,0,0,0,.41-.85v-52.2a1.13,1.13,0,0,0-.41-.85,1,1,0,0,0-.88-.2Zm3.47,6.49v7.61h13.05v2.18H247.76v5.44h13.05V307H247.76v5.44h13.05v2.18H247.76v6.53h13.05v2.18H247.76v7.61h16.31a2.18,2.18,0,0,0,2.18-2.18v-37a2.18,2.18,0,0,0-2.18-2.18ZM218,300.07h3.88l2.21,13.53a20,20,0,0,1,.2,2.34h.07a14.51,14.51,0,0,1,.34-2.38l2.85-13.49h3.81l2.58,13.66a21.85,21.85,0,0,1,.24,2.18h0a18.52,18.52,0,0,1,.24-2.28l2.18-13.56h3.6L236,320.39H232.1l-2.62-13a14.43,14.43,0,0,1-.24-2.31h0a18.37,18.37,0,0,1-.31,2.31l-2.69,13h-4.08Z" fill="#404040"/><path id="surface1-2" data-name="surface1" d="M342.08,283.29,311.88,289a1.1,1.1,0,0,0-.88,1.08v40.25a1.1,1.1,0,0,0,.88,1.08l30.2,5.73a1.19,1.19,0,0,0,.2,0A1,1,0,0,0,343,337a1.12,1.12,0,0,0,.4-.84V284.34a1.12,1.12,0,0,0-.4-.84,1,1,0,0,0-.88-.2Zm3.44,6.44v7.55h2.16v2.16h-2.16v5.39h2.16V307h-2.16v5.39h2.16v2.16h-2.16V321h2.16v2.16h-2.16v7.55H361.7a2.16,2.16,0,0,0,2.16-2.16V291.89a2.16,2.16,0,0,0-2.16-2.16Zm4.31,7.55h8.63v2.16h-8.63Zm-31.62,2.9h5.53l2.9,6a10.46,10.46,0,0,1,.61,1.72h0c.11-.39.33-1,.64-1.79l3.2-6h5.06l-6,10,6.2,10.18H331l-3.51-6.57a5.84,5.84,0,0,1-.4-1.35h0a10.72,10.72,0,0,1-.47,1.42l-3.51,6.51h-5.39l6.44-10.08Zm31.62,4.65h8.63V307h-8.63Zm0,7.55h8.63v2.16h-8.63Zm0,8.63h8.63v2.16h-8.63Z" fill="#404040"/><path id="surface1-3" data-name="surface1" d="M438.92,284.64l-29.47,5.59a1.07,1.07,0,0,0-.86,1.05v39.27a1.07,1.07,0,0,0,.86,1.05l29.47,5.59a1.16,1.16,0,0,0,.2,0,1,1,0,0,0,.66-.23,1.09,1.09,0,0,0,.39-.82V285.66a1.09,1.09,0,0,0-.39-.82,1,1,0,0,0-.86-.2Zm3.35,6.28v9.54a7.4,7.4,0,0,1,1.05-.07v7.37h7.37a7.43,7.43,0,0,1-8.42,7.3v6.38h8.42v2.1h-8.42v7.37h15.79a2.11,2.11,0,0,0,2.1-2.1V293a2.11,2.11,0,0,0-2.1-2.1Zm4.21,6.31a7.37,7.37,0,0,1,7.37,7.37h-7.37Zm-29.3,3.85h6.94c5,0,7.47,2.1,7.47,6.28a6,6,0,0,1-2.14,4.8,8.51,8.51,0,0,1-5.72,1.84h-2.1v6.77h-4.44Zm4.44,3.42v6.12h1.74c2.36,0,3.55-1,3.55-3.09s-1.19-3-3.55-3Z" fill="#404040"/><path id="surface1-4" data-name="surface1" d="M146,282.87l-30.68,5.82a1.12,1.12,0,0,0-.89,1.1v40.88a1.12,1.12,0,0,0,.89,1.1L146,337.58a1.21,1.21,0,0,0,.2,0,1.05,1.05,0,0,0,.68-.24,1.13,1.13,0,0,0,.41-.86V283.93a1.13,1.13,0,0,0-.41-.86,1.05,1.05,0,0,0-.89-.21Zm8.59,7.63a45.7,45.7,0,0,0-5.1.27v7.05a46.11,46.11,0,0,0,5.55.34c9.18,0,14.17-2.37,14.17-3.59v-.41C169.11,292.86,163.57,290.51,154.56,290.51Zm14.62,7.12c-3,1.81-8.6,2.74-14.17,2.74a48.39,48.39,0,0,1-5.55-.31v9.07a46.34,46.34,0,0,0,5.55.31c9.18,0,14.17-2.37,14.17-3.59Zm-36.84,1.47c2.14,7.15,4.18,14.34,6.3,21.5-1.48-.1-3-.21-4.42-.34q-.59-2.4-1.23-4.79c-2,0-3.94-.08-5.89-.17-.38,1.52-.74,3-1.13,4.52-1.25-.1-2.52-.16-3.77-.24,1.87-6.72,3.83-13.44,5.68-20.16C129.38,299.3,130.84,299.22,132.34,299.1Zm-2.4,3.8c-.43,3-1.37,5.95-2,8.94l4.21,0c-.73-3-1.62-5.94-2.19-9Zm39.23,6c-3,1.82-8.6,2.74-14.17,2.74a48.14,48.14,0,0,1-5.55-.31v8.42a46.11,46.11,0,0,0,5.55.34c9.18,0,14.17-2.37,14.17-3.59Zm0,10.65c-3,1.81-8.6,2.74-14.17,2.74a48.44,48.44,0,0,1-5.55-.31v7.7a45.69,45.69,0,0,0,5.1.27c9.06,0,14.62-2.4,14.62-3.7Z" fill="#404040"/><path d="M478,235.47c-3.87-.71-6.45-3.31-8.87-6.1A1.58,1.58,0,0,1,469,228c1-2.44-.52-3.8-2.33-4.49a49.83,49.83,0,0,0-9-2.53,53.34,53.34,0,0,0-9-.58A4.12,4.12,0,0,0,446,221.7c-3.84,4.26-8.06,8-13.44,10.18a20.34,20.34,0,0,1-5.35,1.12c-1.46.16-2.16-.74-1.26-2,1.67-2.38,3.25-4.95,5.38-6.86,4.41-4,9.75-6.48,15.38-8.33a3.75,3.75,0,0,0,1.61-.78c2.37-2.62,4.67-5.3,7.17-8.17a69.9,69.9,0,0,0-6.79-4.16c-4.33-2.05-9.18.65-10.2,5.45-.08.38-.22.94-.49,1.05-2.07.89-4.18,1.69-6.28,2.52l-.33-.59a3.65,3.65,0,0,1,.3-1.08c5.75-8.71,14-13.89,25.35-9.18a1.55,1.55,0,0,1,.19.07c2.45,1.43,4.81,1.88,7.19-.26a3.31,3.31,0,0,1,2.47-.75c1.17.23,2.67.69,3.23,1.57.43.68,0,2.38-.65,3.21-3.12,4.24-6,5.14-11,3.82a1.78,1.78,0,0,0-1.46.22c-1.84,1.87-3.58,3.82-5.76,6.19,4.67-.19,8.26,1.22,11.79,2.87a29.48,29.48,0,0,1,14.35,14.6,11.58,11.58,0,0,0,.62,1Zm-35-14.27a24.46,24.46,0,0,0-12.48,5.5,4.2,4.2,0,0,0-1.25,1.58,9.21,9.21,0,0,0-.26,2.27,5.6,5.6,0,0,0,2.11,0A29.9,29.9,0,0,0,443,221.19Zm26.41-18.72c-2.13-1-3.84-.64-5.72,1.12C465.78,203.76,467.6,204,469.44,202.48Z" fill="#404040"/><path d="M457.44,198.07c-2-.37-3.78-.64-4.67-2.54-.79-1.7-.09-3.21,1-4.54a4,4,0,0,1,6.3.68c.58,1.54,1.63,3.26,1.32,4.64C461.21,197.16,458.83,197.51,457.44,198.07Z" fill="#404040"/><path d="M508.72,215.81q0-2.87,0-5.74c.18-.57.37-1.13.52-1.71,2.62-10.19,8.14-17.83,18.63-21a58.1,58.1,0,0,1,6.49-1.21c1.77,3.16-1.6,2.87-2.37,4.42a25.42,25.42,0,0,1,17.78,4.85l-2-3.35,1.5-2.33c2.17,2.45,4,4.39,5.69,6.44a26,26,0,0,1-11.8,41.23c-1.6.54-3.25.9-4.88,1.35h-4.1c-.52-1.53-.32-2.75,1.56-3.39a27.72,27.72,0,0,1-13.92-3.91l1.52,2.21-1.3,1.52c-5.25-3.71-9.37-8.21-11.69-14.19C509.68,219.34,509.25,217.56,508.72,215.81Zm8.92,1.8c-.29,4.24.94,7.75,4.38,10.48a20.13,20.13,0,0,0,13,4.71c2.52,0,5.31.11,7.29-2a36.92,36.92,0,0,0,10.18-21.44c.29-2.59.6-5.3-1-7.73a20,20,0,0,0-23.35-7.48,4.74,4.74,0,0,0-2,1.36A37.13,37.13,0,0,0,517.64,217.62Zm36.23,2.12c-.88,1.72-1.58,3.28-2.44,4.73-.72,1.21-.45,1.86,1.17,2.33l3.45-6.08Zm-38-13.43c.84-1.93,1.7-3.78,2.39-5.68.12-.32-.49-.91-1-1.86l-3.52,6.65Z" fill="#404040"/><path d="M93.39,222.28a42.27,42.27,0,0,1,3.76-3.64c5.21-4,10.51-7.81,15.7-12.17h-3.08c-2.11,0-4.24.08-6.34-.05a2.75,2.75,0,0,1-2.77-2.76,3,3,0,0,1,2.29-3.23,9.86,9.86,0,0,1,2.82-.34c6.08,0,12.16,0,18.53-.41-1.47-1.2-3-2.39-4.42-3.59-1.19-1-2.87-1.82-1.52-3.77,1-1.45,3.28-1.65,5-.37,5.66,4.29,11.41,8.49,16.85,13,5,4.15,6.9,9.68,5.16,16-1.87,6.84-6.76,10.74-13.5,12.33a18.58,18.58,0,0,1-13.51-1.8,16.37,16.37,0,0,1-9.08-14.08L102.54,223c-1,.78-1.88,1.58-2.87,2.32-2.44,1.82-4.45,1.49-6.27-1Zm34.06,3.28c5,0,9.42-2.82,10.91-6.92a9.32,9.32,0,0,0-3.12-10.47,12.11,12.11,0,0,0-15.31.33,9.24,9.24,0,0,0,.21,14.33A11.94,11.94,0,0,0,127.45,225.56Z" fill="#404040"/><path d="M134.26,215c0,3.27-3,6-6.6,5.92a6.22,6.22,0,0,1-6.36-5.93c0-3.32,2.91-5.92,6.58-5.88C131.38,209.13,134.27,211.79,134.26,215Z" fill="#404040"/><path d="M10.35,208.31c.66-2.85,1.22-5.72,2-8.54A10.8,10.8,0,0,1,20,191.84a95.9,95.9,0,0,1,12.76-2.76c6.69-1,13.43-1.55,20.15-2.29.6-.07,1.2-.11,2-.18l.53,6.75c-1.49,0-2.9,0-4.31,0-8-.2-15.95-.08-23.85,1.65-6.52,1.43-9.9,5.2-10.54,11.76-.62,6.33-.35,12.53,1.84,18.59a8.46,8.46,0,0,0,6.91,5.92,58.82,58.82,0,0,0,25.19-.81,7.26,7.26,0,0,0,5.64-5.85A26.85,26.85,0,0,0,56.19,212a9.34,9.34,0,0,0-4.56-6A18.13,18.13,0,0,0,28,210.59,11.57,11.57,0,0,0,37.11,215c1.5,0,3-.07,4.51-.06,4.28,0,7.48,2.13,10.32,5.32-5.43,5.4-11.66,7.58-19.11,6S22.19,220.81,22.3,213c.15-10.33,3.28-13.87,13.48-15.09a40.18,40.18,0,0,1,16.25,1c4.34,1.27,7.53,3.86,9,8.22a31.53,31.53,0,0,1,.29,20.9,12.15,12.15,0,0,1-9,8.2,63.13,63.13,0,0,1-28.42.89,13.5,13.5,0,0,1-10.79-9.54c-1-3-1.57-6.2-2.33-9.32-.17-.72-.3-1.46-.45-2.18ZM45.08,221v-.47c-1.63-.37-3.26-.78-4.91-1.07a1.26,1.26,0,0,0-1,.63c-.43,1.11-.7,2.27-1.17,3.86Z" fill="#404040"/><path d="M42,206.63l-1.53,4.9-5.94-1.27-.16-.43Z" fill="#404040"/><path d="M176.86,218v-2.85c0-.21.1-.41.13-.62a38.69,38.69,0,0,1,.8-4.51q4.55-15.16,20-18.67c1.11-.25,2.24-.35,3.37-.52h3.11a3.78,3.78,0,0,0,.55.13,25.28,25.28,0,0,1,8.65,2.25,25.9,25.9,0,0,1,11.89,36,7.53,7.53,0,0,1-3.79,3.59,18.61,18.61,0,0,1-9.24,1.18,28.48,28.48,0,0,1-10.41-3c-3.47-1.81-6.84-3.82-10.21-5.83a73.18,73.18,0,0,0-10.35-5.55c-1.41-.56-2.87-1.13-4.24.22Zm30-.74A4,4,0,0,0,209.3,214c.35-2.34-.67-4.27-2.7-4.92a7.59,7.59,0,0,0-2.08-.42c-3-.08-6-.07-9.05-.13-.61,0-.75.18-.75.77q0,7.41,0,14.81c0,.55.11.76.71.74,1.27,0,2.54,0,3.82,0,.21,0,.42,0,.72,0v-5.52c1,0,1.82,0,2.68,0a1.52,1.52,0,0,1,1.62,1.57c.05.64,0,1.29,0,1.94s.15,1.06.21,1.6c0,.36.23.45.57.45h4.33c.52,0,.62-.25.38-.69a2.55,2.55,0,0,1-.32-.94c-.08-.9-.09-1.81-.13-2.71A3.18,3.18,0,0,0,206.82,217.28Zm4.58,7.59c1.68,0,3.29,0,4.91,0,.11,0,.31-.36.31-.55,0-1.47,0-2.93,0-4.4,0-.23,0-.45,0-.72h.78c1.42,0,2.85,0,4.27,0,.18,0,.52-.17.52-.27,0-1.22,0-2.44,0-3.73h-5.57V212.7h7v-4.06H211.4Z" fill="#404040"/><path d="M200,215.44v-2.91c1.18.06,2.32.05,3.44.19.77.09,1,.54,1,1.4s-.28,1.24-1,1.3C202.28,215.51,201.16,215.44,200,215.44Z" fill="#404040"/><path d="M269.53,230.94a22.66,22.66,0,0,1-5.31-6.33,1.31,1.31,0,0,0-1.47-.78c-1.31.13-2.63.15-4,.22V207.79c.63-.13,1.28-.31,1.94-.39a1.11,1.11,0,0,0,1-1,23.5,23.5,0,0,1,5.69-10.34c.15-.16.32-.32.48-.47a.77.77,0,0,1,.21-.08c.19.26.39.52.59.8q5.4,7.7,10.8,15.4a1,1,0,0,1,.15,1.21q-4.91,8.75-9.79,17.53C269.79,230.59,269.69,230.72,269.53,230.94Z" fill="#404040"/><path d="M302.84,196.45a7.35,7.35,0,0,1,.92,1.12c.54,1.06,1.32,1.11,2.37.86,2.14-.5,4.31-.87,6.59-1.32-.12.3-.18.49-.27.67-1.32,2.47-2.66,4.92-3.94,7.4a2.53,2.53,0,0,0-.2,1.58,24.27,24.27,0,0,1-2.53,17.76c-.12.22-.26.44-.39.65a3.15,3.15,0,0,1-.2.25,3.29,3.29,0,0,1-.42-.36q-5.49-6.56-11-13.13c-.37-.44-.22-.73,0-1.11q3.45-5.44,6.88-10.89C301.39,198.82,302.08,197.69,302.84,196.45Z" fill="#404040"/><path d="M275.59,234.52c.66,0,1.22-.09,1.77-.07a1.17,1.17,0,0,0,1.19-.71c2.57-4.67,5.17-9.33,7.77-14,.15-.26.31-.52.57-1l9.32,14.84C292.12,237,280,237.53,275.59,234.52Z" fill="#404040"/><path d="M275.75,190.28a24.29,24.29,0,0,1,20.15.79l-9,12.77Z" fill="#404040"/><path d="M364.76,195.81c.19-.26.42-.53.61-.82a12.29,12.29,0,0,1,1.78-2.81c.91-.82.8-1.94,1.35-2.82a1.31,1.31,0,0,1,.57-.54,4,4,0,0,1,3.12.2,31.06,31.06,0,0,1,18.26,23.14,23,23,0,0,1-2.23,14.53,18.33,18.33,0,0,1-5.9,6.94c-.76.53-1,.55-1.6-.1a4.08,4.08,0,0,1-1.41-2.54.3.3,0,0,0-.14-.21c-1-.45-1-1.51-1.52-2.29-.25-.4-.51-.8-.75-1.21s-.29-.59-.45-.88l-.82-1.59c-.29-.56-.54-1.14-.85-1.69s-.64-.94-.91-1.44a1,1,0,0,1-.1-.71c.77-1.83,1.57-3.64,2.37-5.45a3.2,3.2,0,0,1,.32-.43c.18-.28.2-.43-.15-.68a4.67,4.67,0,0,1-1.21-1.35,6.35,6.35,0,0,1-1.17-4,4.6,4.6,0,0,1,.87-2.61,1,1,0,0,0,.08-.89,19.44,19.44,0,0,0-9.08-9.35A6.69,6.69,0,0,0,364.76,195.81Z" fill="#404040"/><path d="M353.21,228.08a1.43,1.43,0,0,1,.37.25,3.25,3.25,0,0,0,2.72,1,22.89,22.89,0,0,0,7.2-.77,18.67,18.67,0,0,0,8-4.56c.49-.46.94-1,1.42-1.41s.53-.28.74.19a12.8,12.8,0,0,0,1.13,2,3.78,3.78,0,0,1,1,2,.52.52,0,0,0,.2.32,5.16,5.16,0,0,1,1.11,1.78c.15.26.37.49.54.74a7.1,7.1,0,0,1,1,1.71,2,2,0,0,0,.61.89,3.88,3.88,0,0,1,1.06,2.35c0,.15-.27.38-.46.48a17,17,0,0,1-12.41,1.68c-1.34-.31-2.67-.67-4-1a.7.7,0,0,1-.18-.08c-1.59-.94-3.2-1.83-4.75-2.83A23.21,23.21,0,0,1,353.21,228.08Z" fill="#404040"/><path d="M349.91,200.71h-2.6c-.51,0-.69-.24-.45-.73.73-1.49,1.47-3,2.18-4.47.41-.85.73-1.75,1.2-2.57,1.06-1.86,2.27-3.63,4.33-4.53a5.85,5.85,0,0,1,1.61-.34c.95-.12,1.9-.21,2.85-.26.53,0,1.06.09,1.59.09h6.47c.9,0,1.21.41.83,1.22a29.66,29.66,0,0,1-1.46,2.71,17.71,17.71,0,0,1-1.81,2.61,20.36,20.36,0,0,1-3,2.85,16.27,16.27,0,0,1-3.75,2.12,12,12,0,0,1-4.1,1.07,36.25,36.25,0,0,0-3.87.46Zm14.45-12.26c-1,.15-2,.28-3,.45a.56.56,0,0,0-.33.4.58.58,0,0,0,.25.44,3.39,3.39,0,0,1,1.37,2.39,5.32,5.32,0,0,0,.61,1.41c.18.32.43.33.77.07a8.23,8.23,0,0,0,2.27-2.5,1.54,1.54,0,0,0,.27-1.56A2.22,2.22,0,0,0,364.35,188.45Zm-13.14,6.25a10.06,10.06,0,0,0-2.58,3.38,2.33,2.33,0,0,0,0,1.43.9.9,0,0,0,.69.51c1.3,0,2.6-.05,3.9-.18a.73.73,0,0,0,.67-1.09,4.91,4.91,0,0,0-.76-1.28,5,5,0,0,1-1.25-1.77A4.42,4.42,0,0,0,351.21,194.7Zm1.31-2.89.17.07c-.22.68.22,1.08.63,1.45s1,.2,1-.18c.12-.62.2-1.26-.37-1.7a1.35,1.35,0,0,0-.89-.38C352.86,191.12,352.71,191.55,352.52,191.81Zm5.21-.36c.72-.59.94-1.06.72-1.49a2.53,2.53,0,0,0-.71-.9,1,1,0,0,0-.89-.09.55.55,0,0,0-.2.84C357,190.33,357.36,190.87,357.73,191.45Z" fill="#404040"/><path d="M366.17,199.09c.38,0,.61,0,.83,0a2.48,2.48,0,0,1,1.05.16,2.8,2.8,0,0,1,1.52,2c.1.94.53,1.93-.11,2.78-.82,1.1-1.49,2.37-2.85,3-.55.25-1,.76-1.54,1-.7.35-1.47.56-2.19.88a7.23,7.23,0,0,1-3.12.41,3.26,3.26,0,0,1-3.2-2.71,2.9,2.9,0,0,1,1-2.74.41.41,0,0,0,.16-.2,3.47,3.47,0,0,1,1.63-2,13.86,13.86,0,0,1,2.73-1.72C363.42,199.5,364.77,198.73,366.17,199.09Z" fill="#404040"/><path d="M365.18,221a3,3,0,0,0,0,.53,3.79,3.79,0,0,1-4,3.73,4.33,4.33,0,0,1-2.45-1.11c-.47-.5-1.12-.81-1.62-1.29a3.44,3.44,0,0,1-1.17-2.66,5.85,5.85,0,0,0,0-.73,3.3,3.3,0,0,1,2-3.51,4.46,4.46,0,0,1,1.42-.39,4.61,4.61,0,0,1,1.72,0,8,8,0,0,1,2,.92,5.72,5.72,0,0,1,2,2.57,1.45,1.45,0,0,1,.15.56c0,.47,0,.94,0,1.4Z" fill="#404040"/><path d="M347.21,209.15c0-.18,0-.36,0-.53a1.55,1.55,0,0,1,.89-1.64c.73-.22,1.67-.42,2.26.4.78,1.08,1.62,2.12,1.36,3.66-.34,2-1.87,2.1-3.21,1.18A3.2,3.2,0,0,1,347.21,209.15Z" fill="#404040"/><path d="M43.87,134.95H6.66A10.09,10.09,0,0,1,0,128.29V91.47c1.9-5.13,5.66-6.84,11-6.7,9.58.26,19.17.22,28.74,0,5.16-.11,8.67,1.75,10.4,6.68v37.21A11.1,11.1,0,0,1,43.87,134.95ZM26.69,121.42c-.2-.69-.37-1.31-.57-1.92q-3-9.19-6-18.38c-1.09-3.34-1.09-3.26-4.6-3.36a2.22,2.22,0,0,0-2.62,1.84c-2.08,6.78-4.29,13.52-6.45,20.28-.17.53-.26,1.08-.4,1.63,4.15.48,4.15.48,5.28-3.17,1.06-3.43,1.07-3.48,5.26-3.42s3.13-.75,4.45,3.23c1.26,3.81,1.2,3.83,5.22,3.45A2.27,2.27,0,0,0,26.69,121.42Zm6-7.23H44.25c0-1.12,0-2,0-2.91-.23-3.55-2.27-6.2-5.31-7a7.88,7.88,0,0,0-9,3.54,9.94,9.94,0,0,0-.24,10.27c1.81,3.24,5,4,8.41,3.87a18.39,18.39,0,0,0,2.72-.33c2.74-.51,2.87-.81,1.66-3.44C35.81,119.4,33.33,118.48,32.67,114.19Z" fill="#404040"/><path d="M19.25,111.63H13.19l3-10.16Z" fill="#404040"/><path d="M40.14,111.2H32.93A3.71,3.71,0,0,1,36.42,107C38.67,106.88,39.95,108.23,40.14,111.2Z" fill="#404040"/><path d="M103.65,128.29V91.47c1.9-5.13,5.66-6.84,11-6.7,9.58.26,19.17.22,28.74,0,5.16-.11,8.67,1.75,10.4,6.68v37.21a11.1,11.1,0,0,1-6.27,6.27H110.31A10.09,10.09,0,0,1,103.65,128.29Zm5.59-6.8c4.31.37,4.31.37,5.25-2.69,1.19-3.88,1.19-3.88,5.34-3.88,3.5,0,3.5,0,4.51,3.2,1.23,3.9,1.23,3.9,5.61,3.34-.18-.63-.33-1.25-.53-1.85q-3-9.12-5.92-18.23c-1.18-3.62-1.17-3.57-5-3.61a1.91,1.91,0,0,0-2.21,1.6c-.58,2.07-1.29,4.11-1.94,6.16Zm34.7-17c0,1.56,0,2.92,0,4.29,0,2.09.06,4.18-.08,6.26a3.55,3.55,0,0,1-3.38,3.43c-1.85.1-2.94-.87-3.28-3.12a26.78,26.78,0,0,1-.19-3.71c0-2.39,0-4.77,0-7.14h-4c0,4.29-.32,8.48.09,12.59.4,3.93,4,5.86,7.71,4.55a20.39,20.39,0,0,0,3.47-2l.49,1.85h3.41v-17Z" fill="#404040"/><path d="M122.5,111.58h-6l3-10.11Z" fill="#404040"/><path d="M207.31,128.29V91.47c1.9-5.13,5.66-6.84,11-6.7,9.58.26,19.17.22,28.74,0,5.16-.11,8.67,1.75,10.4,6.68v37.21a11.1,11.1,0,0,1-6.27,6.27H214A10.09,10.09,0,0,1,207.31,128.29ZM239,121.8c-2.19-6.72-4.35-13.35-6.5-20-1.18-3.63-1.17-3.58-5-3.59a1.91,1.91,0,0,0-2.17,1.64c-1.44,4.74-3,9.45-4.52,14.17-.83,2.6-1.64,5.2-2.54,8a16.57,16.57,0,0,1,2.35,0c1.59.25,2.37-.37,2.7-2s.92-3.11,1.43-4.78h4.16c3.46,0,3.46,0,4.47,3.22,1.2,3.8,1.2,3.81,5.25,3.42A2.35,2.35,0,0,0,239,121.8Zm7.31.17V105h-4V122Zm.4-21.87a2.23,2.23,0,0,0-2.26-2.36,2.26,2.26,0,0,0-2.54,2.3,2.18,2.18,0,0,0,2.34,2.3A2.23,2.23,0,0,0,246.67,100.11Z" fill="#404040"/><path d="M228.41,102l3,10h-6Z" fill="#404040"/><path d="M354.85,134.94H317.63c-4.94-1.73-6.79-5.25-6.68-10.41.2-10.24.06-20.49.06-30.74,0-5.39,3.57-9,9-9,10.25,0,20.49.14,30.74-.06,5.16-.1,8.68,1.75,10.42,6.69v37.21A11.1,11.1,0,0,1,354.85,134.94Zm-32.1-36.85v23.62h13.93v-3.47h-9.79V98.09Zm21,9.51-.27-2.79H340v16.87h4a3.88,3.88,0,0,0,.12-.57q0-3.42,0-6.84c0-4.54.73-5.41,5.17-6.22V104.4C346.7,103.86,345.24,105.47,343.7,107.6Z" fill="#404040"/><path d="M414.61,128.27V91.44a10.65,10.65,0,0,1,6.66-6.66h36.82l1.55.72a8.06,8.06,0,0,1,5.09,7.67q.06,16.72,0,33.44a8.13,8.13,0,0,1-4.75,7.51l-1.51.8H421.27A10.09,10.09,0,0,1,414.61,128.27Zm14.36-15a53.51,53.51,0,0,0,7.2-1.39,6.9,6.9,0,0,0,4.52-7.46c-.28-3.25-2.17-5.77-5.54-6.19s-6.82-.09-10.28-.09v23.4H429Zm25-8.18c-3.09-1.14-5.94-1.5-8.66.21a4.58,4.58,0,0,0-.15,8c1.07.71,2.44,1,3.48,1.72.79.57,1.77,1.57,1.77,2.39,0,1.45-1.45,1.72-2.65,1.61-1.46-.14-2.9-.53-4.35-.8-1.2,2.87-1.09,3.29,1.92,3.65a17.16,17.16,0,0,0,5.78-.33,4.45,4.45,0,0,0,3.53-4.2,4.77,4.77,0,0,0-2.72-5,30.12,30.12,0,0,1-3.19-1.45,8.26,8.26,0,0,1-1.58-2.15c.82-.5,1.6-1.34,2.46-1.43a13.5,13.5,0,0,1,3.62.62Z" fill="#404040"/><path d="M430.86,100.58c4,.4,5.93,2.23,5.47,5.2-.43,2.72-4.12,4.73-6.71,3.6a1.37,1.37,0,0,1-.62-1,41.11,41.11,0,0,1,.05-6C429.13,101.67,430.23,101.15,430.86,100.58Z" fill="#404040"/><path d="M518.26,128.26V91.44a10.65,10.65,0,0,1,6.66-6.66h36.82a4.13,4.13,0,0,0,.64.38c4.08,1.53,6,4.28,6,8.62q0,16.35,0,32.71a8.26,8.26,0,0,1-8.43,8.43c-11.1,0-22.2.05-33.29,0a7.13,7.13,0,0,1-4.37-1.31C520.67,132.11,519.58,130.05,518.26,128.26ZM529,98.39v23.37h4.27v-8.28c2.73-.58,5.31-.78,7.61-1.69,3.16-1.25,4.23-4.06,4-7.35a6.22,6.22,0,0,0-4.46-5.83C536.68,97.34,532.87,97.8,529,98.39Zm23.46,23.45c0-2.56,0-4.9,0-7.24,0-4.83.6-5.59,5.13-6.55v-3.61c-2.74-.47-4.2,1.13-5.61,3.25l-.32-2.86h-3.4v17Z" fill="#404040"/><path d="M533.21,109.53a22.51,22.51,0,0,0,2.7.12c2-.16,4-.7,4.39-2.87a6,6,0,0,0-.7-4.15c-1.29-1.87-3.58-1.54-5.59-1.31-.31,0-.74.82-.76,1.27C533.17,104.79,533.21,107,533.21,109.53Z" fill="#404040"/><path d="M533.21,109.53c0-2.53,0-4.74,0-6.95,0-.45.45-1.23.76-1.27,2-.23,4.3-.55,5.59,1.31a6,6,0,0,1,.7,4.15c-.42,2.17-2.41,2.72-4.39,2.87A22.51,22.51,0,0,1,533.21,109.53Z" fill="#404040"/><path d="M101.37,48.77H99.84c-.7-.26-1.39-.57-2.1-.78-4.33-1.22-8.65-2.47-13-3.58a2,2,0,0,1-1.83-2.15c-.65-7.89-1.41-15.78-2.09-23.67-.54-6.18-1-12.37-1.53-18.56h42.65c0,1.14,0,2.28-.08,3.41-1.12,12.63-2.31,25.26-3.37,37.89-.16,1.9-.7,2.83-2.71,3.32C110.93,45.84,106.17,47.37,101.37,48.77ZM89,28.06c.09,1.36.16,2.6.27,3.83.39,4.47.48,4.25,4.62,5.73a19.08,19.08,0,0,0,13.45,0c4.26-1.52,4.35-1.28,4.74-5.84.33-3.89.66-7.78,1-11.89H93.52l-.46-5.58h20.49L114,9.25H87.22l1.43,16h18.53c0,.82-.06,1.43-.11,2-.37,5.08-.33,5.34-5.34,6.17-2.08.35-4.49-.43-6.54-1.22-.64-.25-.61-2.21-.9-3.39-.06-.24-.15-.48-.25-.79Z" fill="#404040"/><path d="M193.33,48.77h-1.52c-.64-.24-1.27-.53-1.93-.71-4.46-1.21-8.92-2.45-13.4-3.58a1.84,1.84,0,0,1-1.63-1.9c-.4-4.86-.87-9.72-1.33-14.57q-1.32-14-2.66-28h43.41C213,14,211.66,27.91,210.44,41.86c-.14,1.65-.65,2.38-2.31,2.8C203.17,45.9,198.26,47.38,193.33,48.77ZM180.86,28.15c.11,1.47.2,2.72.3,4,.33,4.11.44,3.84,4.18,5.31a18.79,18.79,0,0,0,14.49,0c3.71-1.46,3.82-1.19,4.14-5.13s.68-8.17,1-12.48H193.52a3.93,3.93,0,0,1,1.59-1.11c3-1.3,6.07-2.56,9.08-3.9.52-.23,1.19-.71,1.29-1.17a43.26,43.26,0,0,0,.51-4.4H178.92l.71,5.22h12.52c-3.6,1.85-7.23,3.34-10.83,4.91-.51.22-1.16.88-1.17,1.35a35.45,35.45,0,0,0,.38,4.36H199c0,.92,0,1.55,0,2.18-.16,4.7-.19,4.61-4.63,6-2.62.83-4.93-.21-7.15-1.08-.7-.28-.65-2.43-1-3.73,0-.11-.15-.19-.29-.35Z" fill="#404040"/><path d="M465.38,48.79c-1.54-.52-3.13-1-4.62-1.59a6.06,6.06,0,0,1-4-6.25c.1-3.1,0-6.21,0-9.32,0-4.22,2.42-6.57,6.63-6.58,3.36,0,6.72,0,10.08,0,4.89,0,7.91-3.08,7.95-8,0-1.39,0-2.78,0-4.14,6.41-1.07,8.64-.24,10.19,5.37A20.38,20.38,0,0,1,491,32.07c-1.18,2.79-3,4.18-6.12,4.12-4.94-.1-9.89,0-14.84,0a4.54,4.54,0,0,0-1.52.63,4.59,4.59,0,0,0,1.52.64c3.23.06,6.46,0,9.65,0,1.67,4.85,0,8.51-4.6,10.13-1.31.46-2.66.78-4,1.16Zm7.49-5.91c.11,1.28.94,2.23,2.18,1.93a3.18,3.18,0,0,0,2-2.07,1.84,1.84,0,0,0-2.06-2.15C473.62,40.61,472.88,41.42,472.87,42.88Z" fill="#404040"/><path d="M456.67,11.09c.13-2.38.12-4.58.41-6.75.23-1.75,1.62-2.7,3.21-3.17a28.21,28.21,0,0,1,15-.29,6.09,6.09,0,0,1,4.77,6.32c0,3.36.06,6.73,0,10.09-.07,4-2.49,6.31-6.51,6.32-3.49,0-7,0-10.47,0a7.29,7.29,0,0,0-7.67,7.63c0,1.57,0,3.14,0,4.66-6.24,1.18-9.12-.7-10.45-6.55a22.45,22.45,0,0,1,.21-10.92c1-3.86,3.57-5.86,7.57-5.87,4.7,0,9.39,0,14.09,0,.52,0,1-.51,1.55-.79a4.73,4.73,0,0,0-1.52-.61C463.59,11.06,460.3,11.09,456.67,11.09Zm4.69-7.42c-.42.57-1.36,1.31-1.52,2.19-.22,1.26.7,2.13,2,2.15A1.9,1.9,0,0,0,464,6C464,4.69,463.33,3.93,461.36,3.68Z" fill="#404040"/><path d="M308.91,34.21c-1.82,5.45-6,7.32-11.32,7.47a13.51,13.51,0,0,1-12.8-7.15l5.4-3.19c.52.57,1,1.09,1.44,1.58,2.12,2.17,4.7,3.15,7.6,2.15a4.28,4.28,0,0,0,2.57-2.63c.16-1-.77-2.46-1.64-3.28a13.68,13.68,0,0,0-3.51-1.82c-1.65-.81-3.37-1.49-4.94-2.44a9.6,9.6,0,0,1-4.6-11.09c1-3.9,4.48-6.46,9.12-6.71,5-.27,8.6,1.58,10.49,5.6L301.61,16c-1.24-1.63-2.57-2.9-4.72-2.83a3,3,0,0,0-3.06,2.1A2.82,2.82,0,0,0,295,18.66a16.28,16.28,0,0,0,2.64,1.49c1.49.71,3,1.33,4.51,2a11.7,11.7,0,0,1,6.8,7.48Z" fill="#404040"/><path d="M260.16,35.3l5.61-3.37c.53.72.93,1.36,1.43,1.92a4.16,4.16,0,0,0,4.64,1.36c1.74-.57,2.11-2.07,2.12-3.67q0-10.85,0-21.7c0-.74,0-1.48,0-2.29h7c0,.74.09,1.36.08,2-.06,7.61-.06,15.22-.23,22.83-.1,4.34-2,7.54-6.44,8.81-5,1.41-9.9,0-12.75-3.64C261.14,36.89,260.74,36.17,260.16,35.3Z" fill="#404040"/><path d="M338.63,22c3-7.45,9.06-11.43,16.24-13.84,15.78-5.3,31.53-5.2,46.85,1.63a29.84,29.84,0,0,1,9.36,6.93c4.39,4.73,4.41,10.76-.05,15.42a31.47,31.47,0,0,1-10.18,7.28c-16,6.7-32.34,6.62-48.51.23-6.2-2.45-11.23-6.41-13.7-12.93Zm15.47-6.08c-.63,3.17-1.28,6.33-1.89,9.5s-1.22,6.48-1.85,9.89h4c1.47-4.78,1.47-4.78,6.46-5.14A8.58,8.58,0,0,0,369,22c.32-3.34-1.21-5.71-4.53-6S357.84,15.88,354.11,15.88Zm35.48,14.25c1.59,0,3.15.06,4.71,0A8.69,8.69,0,0,0,402.84,22c.26-3.36-1.29-5.63-4.6-6a67,67,0,0,0-8.81-.31,2.14,2.14,0,0,0-1.67,1.14c-1.28,6.11-2.43,12.24-3.6,18.29C389.41,37,388.4,32.5,389.59,30.14Zm-21.22-.22c4.06.37,4.07.38,4.73-2.87.43-2.11.84-4.23,1.21-6.36.52-3,2.8-1.74,4.42-1.78,2-.06,2.06,1.35,1.76,2.88-.51,2.65-1,5.32-1.46,8,2.9.93,4.46.42,4.75-2.56.22-2.23.84-4.43,1.22-6.65.43-2.58-.61-4.23-3.26-4.59-2-.28-4.06-.39-6.2-.58l.68-5.83c-1.94,1-4.05,1.48-4.27,2.39C370.55,17.79,369.55,23.77,368.37,29.91Z" fill="#404040"/><path d="M390,27.06c1.33,0,2.39.06,3.44,0,3.38-.22,5.31-2.64,4.88-6-.32-2.57-2.4-2.17-4-2.4s-2.91-.14-3.13,2S390.42,24.69,390,27.06Z" fill="#404040"/><path d="M356.21,27.06c.45-2.39,1-4.38,1.15-6.39.21-2.45,1.87-2.14,3.39-2,1.71.17,3.67.1,3.83,2.66a5,5,0,0,1-4.93,5.71C358.62,27.12,357.57,27.06,356.21,27.06Z" fill="#404040"/><path d="M390,27.06c.44-2.38.94-4.37,1.14-6.39s1.6-2.22,3.13-2,3.72-.16,4,2.4c.42,3.35-1.5,5.76-4.88,6C392.37,27.12,391.31,27.06,390,27.06Z" fill="#404040"/></g></svg>