<svg xmlns="http://www.w3.org/2000/svg" viewBox="0 0 71 69"><title>tArtboard 1</title><g id="Layer_1" data-name="Layer 1"><path d="M34.12,62.11h-.26A26.05,26.05,0,0,1,7.8,36.06V35.8a.08.08,0,0,1,.11,0A4.59,4.59,0,0,1,8,36.94a28.09,28.09,0,0,0,1.26,6.21c.15.49.19.51.7.51H60.75c.51,0,.55,0,.7-.51a27.87,27.87,0,0,0,1.26-6.21,4.6,4.6,0,0,1,.12-1.11.08.08,0,0,1,.11,0v.26A26.05,26.05,0,0,1,36.88,62.11h-.26a.07.07,0,0,1,0-.1,4.11,4.11,0,0,1,1.07-.11,27.24,27.24,0,0,0,16.2-7.11,18.27,18.27,0,0,0,1.63-1.63.23.23,0,0,0,.09-.17h-40a.26.26,0,0,0-.2.44l.16.18a28,28,0,0,0,7.76,5.63,27.3,27.3,0,0,0,8.21,2.5c.73.1,1.46.17,2.19.21a.72.72,0,0,1,.35.06A.07.07,0,0,1,34.12,62.11Z" fill="#fff"/><path d="M7.8,32.63v-.26A26.05,26.05,0,0,1,33.85,6.31h.26a.07.07,0,0,1,0,.1A4.11,4.11,0,0,1,33,6.52a27.24,27.24,0,0,0-16.2,7.11,18.16,18.16,0,0,0-1.6,1.6s-.1.08-.1.19h40a.26.26,0,0,0,.2-.44,13.23,13.23,0,0,0-1-1,29,29,0,0,0-4.8-3.67A27.42,27.42,0,0,0,39.15,6.68c-.72-.1-1.44-.16-2.16-.2a.71.71,0,0,1-.35-.06.07.07,0,0,1,0-.1h0A26.32,26.32,0,0,1,62.93,32.63h0a.08.08,0,0,1-.11,0,4.56,4.56,0,0,1-.12-1.11,27.91,27.91,0,0,0-1.26-6.21c-.15-.49-.19-.51-.7-.51H10c-.51,0-.55,0-.7.51A28.07,28.07,0,0,0,8,31.49a4.63,4.63,0,0,1-.12,1.11A.08.08,0,0,1,7.8,32.63Z" fill="#fcfcfc"/><path d="M36.65,6a.08.08,0,0,0,0,.06.44.44,0,0,1-.37.12H34.45a.44.44,0,0,1-.37-.12.08.08,0,0,0,0-.06Z" fill="#f26167"/><path d="M7.16,32.93h.06a.44.44,0,0,1,.12.37q0,.92,0,1.84a.44.44,0,0,1-.12.37H7.16Z" fill="#706788"/><path d="M36.66,62.36a.09.09,0,0,0,0,.06H34.09a.08.08,0,0,0,0-.06.44.44,0,0,1,.37-.12h1.84A.44.44,0,0,1,36.66,62.36Z" fill="#f26167"/><path d="M63.52,32.92V35.5A27.38,27.38,0,0,1,62,43.4c-.08.24-.23.22-.41.22H9.14c-.26,0-.39-.06-.48-.32a27.55,27.55,0,0,1-1.44-7.8V32.92A27.46,27.46,0,0,1,8.69,25c.08-.24.23-.22.41-.22H61.6a.43.43,0,0,1,.49.36A27.43,27.43,0,0,1,63.52,32.92Z" fill="#1e436d"/><path d="M36.68,62.46H34.05a26.38,26.38,0,0,1-7.28-1.26,28.58,28.58,0,0,1-12.69-8.1S14,53,14,52.92H56.76a1.36,1.36,0,0,1-.4.48,28.6,28.6,0,0,1-14.66,8.4A24.09,24.09,0,0,1,36.68,62.46Z" fill="#ee5253"/><path d="M34.06,6h2.61A26.88,26.88,0,0,1,45,7.62a28.42,28.42,0,0,1,11.46,7.62c.06.06.14.11.16.23H14.12a1.8,1.8,0,0,1,.44-.53A28.39,28.39,0,0,1,29,6.66,24.35,24.35,0,0,1,34.06,6Z" fill="#ee5253"/></g><g id="Layer_6" data-name="Layer 6"><circle cx="35.5" cy="34.5" r="32.5" fill="none" stroke="#8bcf83" stroke-miterlimit="10" stroke-width="2"/></g></svg>