<svg xmlns="http://www.w3.org/2000/svg" xmlns:xlink="http://www.w3.org/1999/xlink" viewBox="0 0 71 69"><defs><clipPath id="clip-path"><circle cx="35.74" cy="34.5" r="28.5" fill="none"/></clipPath></defs><title>uArtboard 1</title><g id="Layer_5" data-name="Layer 5"><g clip-path="url(#clip-path)"><path d="M-12.35,40.7v-5l.11-.07a1.7,1.7,0,0,1,.53,0H36.8c.19,0,.38,0,.57,0h72.32c.75,0,.7,0,.7-.69q0-1.79,0-3.59c0-.43,0-.46-.45-.47H37.55a1.38,1.38,0,0,1-.76-.09.66.66,0,0,1-.1-.45q0-2.05,0-4.1a.72.72,0,0,1,.09-.45.59.59,0,0,1,.38-.09h72.46c.84,0,.76.05.77-.76q0-1.76,0-3.52c0-.43,0-.46-.45-.47H37.55a1.39,1.39,0,0,1-.75-.09.55.55,0,0,1-.1-.38q0-2.12,0-4.24a.61.61,0,0,1,.09-.38.59.59,0,0,1,.38-.09h72.46c.84,0,.76.05.77-.76q0-1.76,0-3.52c0-.43,0-.46-.45-.47H37.55a1.39,1.39,0,0,1-.75-.09.55.55,0,0,1-.1-.38q0-2.15,0-4.3a.61.61,0,0,1,.09-.38.59.59,0,0,1,.38-.09h72.45c.84,0,.77.05.77-.75,0-1.2,0-2.39,0-3.59a.71.71,0,0,1,.11-.51s.14-.07.13.07,0,.16,0,.23q0,32.08,0,64.16c0,.28-.07.32-.33.32H-12.05c-.1,0-.23.08-.3-.06a.54.54,0,0,1,.38-.11H109.57c.9,0,.82.07.82-.8q0-1.78,0-3.55c0-.41,0-.44-.43-.45H-11.49a2.64,2.64,0,0,1-.86,0v-5a.54.54,0,0,1,.38-.11H109.57c.9,0,.82.07.82-.8q0-1.74,0-3.49c0-.41,0-.44-.43-.45H-11.49a2.64,2.64,0,0,1-.86,0V45.6a.66.66,0,0,1,.33,0H110.05c.25,0,.34-.11.33-.35,0-.58,0-1.16,0-1.74s0-1.43,0-2.15c0-.48,0-.5-.52-.5H-11.57A1.21,1.21,0,0,1-12.35,40.7Z" fill="#fefefe"/><path d="M36.8,35.68l-.37,0H-11.92l-.37,0a.83.83,0,0,1,0-.36q0-17,0-34.09a.72.72,0,0,1,0-.36H36.8a.61.61,0,0,1,.11.44q0,2,0,4.09a.75.75,0,0,1-.1.45v5a.71.71,0,0,1,.1.38q0,2.11,0,4.21a.5.5,0,0,1-.1.38v5a.81.81,0,0,1,.1.48q0,2,0,4a.72.72,0,0,1-.1.48v5a.56.56,0,0,1,.1.41q0,2.05,0,4.11A.64.64,0,0,1,36.8,35.68Z" fill="#1e436d"/><path d="M-12.35,60.62a.58.58,0,0,1,.36,0H110.14c.28,0,.38,0,.38.36,0,1.44,0,2.88,0,4.32,0,.27-.08.37-.34.32H-12.35Z" fill="#ee5253"/><path d="M-12.35,50.69c.14-.1.3-.06.46-.06H109.95a2,2,0,0,0,.27,0c.24,0,.3.07.3.3,0,1.3,0,2.59,0,3.89,0,.78,0,.78-.78.78H-12.35Z" fill="#ee5253"/><path d="M-12.35,40.7H110.08c.34,0,.44.07.44.43,0,1.41,0,2.82,0,4.22,0,.24-.05.36-.31.32H-11.86a.81.81,0,0,1-.49-.06Z" fill="#ee5253"/><path d="M36.81,5.85v-5h73.7c0,1.58,0,3.15,0,4.73,0,.21-.08.28-.27.26H36.81Z" fill="#ee5253"/><path d="M36.81,15.8v-5h73.45c.18,0,.25,0,.25.24q0,2.25,0,4.49c0,.2-.07.26-.26.24H36.81Z" fill="#ee5253"/><path d="M36.81,25.75q0-2.49,0-5H110.3c.16,0,.22.06.22.22q0,2.28,0,4.56c0,.16-.06.22-.22.21H36.81Z" fill="#ee5253"/><path d="M36.8,35.68q0-2.48,0-5h73.26c.5,0,.44-.08.44.45,0,1.37,0,2.75,0,4.12,0,.36-.11.41-.43.41H37.23Z" fill="#ee5253"/><path d="M10.48,28.12h1c.2,0,.33,0,.37-.27a6.52,6.52,0,0,1,.25-.79c0-.06,0-.15.1-.15s.07.09.09.15c.09.27.2.54.28.82s.17.26.36.25c.35,0,.71,0,1.16,0-.37.27-.64.5-.94.68s-.21.29-.13.5.21.6.31.89l-.07,0c-.27-.19-.55-.38-.82-.59a.32.32,0,0,0-.47,0c-.26.22-.55.4-.86.62a4.12,4.12,0,0,1,.29-1c.06-.19.07-.32-.13-.45s-.55-.4-.83-.61Z" fill="#fdfdfd"/><path d="M19.29,23.27c.09-.28.18-.56.28-.84s.12-.49-.19-.66a2.7,2.7,0,0,1-.73-.63c.34,0,.68,0,1,0s.35-.11.41-.32.19-.6.32-1a5.58,5.58,0,0,1,.35,1,.29.29,0,0,0,.34.28c.36,0,.71,0,1.11,0a2.11,2.11,0,0,1-.66.57c-.52.4-.41.26-.24.8.08.26.15.52.24.86l-.82-.62a.43.43,0,0,0-.61,0c-.25.2-.51.39-.76.58Z" fill="#fdfdfd"/><path d="M4,26.83a2.89,2.89,0,0,1,.32.88c.08.3.21.46.55.42a10.11,10.11,0,0,1,1,0c-.37.29-.67.54-1,.75a.2.2,0,0,0-.09.3c.12.27.13.59.28.85,0,.06.06.14,0,.19S5,30.2,5,30.15l-.07-.07c-.88-.63-.88-.63-1.73.06-.06,0-.11.11-.23.07.1-.35.18-.7.31-1a.26.26,0,0,0-.12-.36,6.32,6.32,0,0,1-.85-.7c.33,0,.67,0,1,0s.36-.05.42-.3S3.9,27.19,4,26.83Z" fill="#fdfdfd"/><path d="M17.39,33.74c-.31-.22-.6-.42-.88-.64a.24.24,0,0,0-.35,0c-.3.23-.61.44-1,.7a7.42,7.42,0,0,1,.33-1.09c.12-.25,0-.35-.16-.46s-.55-.39-.83-.59l0-.08a9.13,9.13,0,0,1,.95,0c.31,0,.43-.1.51-.37a4.19,4.19,0,0,1,.31-.89c.24.31.23.72.39,1.06.07.15.12.2.27.2h1.13c-.07.24-.29.3-.45.41-.65.48-.66.47-.36,1.24A.67.67,0,0,1,17.39,33.74Z" fill="#fdfdfd"/><path d="M28.65,26.86c.11.33.23.66.33,1a.3.3,0,0,0,.35.26,4.73,4.73,0,0,1,1.08.06c-.24.18-.48.37-.73.52a.48.48,0,0,0-.22.64,3.47,3.47,0,0,1,.26.92c-.33-.23-.62-.41-.89-.62a.3.3,0,0,0-.44,0c-.27.21-.57.4-.94.66.14-.43.24-.77.35-1.09.06-.16.1-.26-.09-.38s-.6-.45-1-.73c.42,0,.76,0,1.11,0a.36.36,0,0,0,.42-.31c.08-.32.2-.63.3-1Z" fill="#fdfdfd"/><path d="M11.17,23.12a4.28,4.28,0,0,1,.27-.86.32.32,0,0,0-.14-.42,4.63,4.63,0,0,1-.88-.71h1.15c.16,0,.26,0,.3-.22a8.93,8.93,0,0,1,.27-.86c0-.06,0-.11.1-.11s.07.07.08.12l.16.44c.24.64.24.64.93.64h.66a4.27,4.27,0,0,1-.85.67.38.38,0,0,0-.16.56,10.59,10.59,0,0,1,.35,1c-.33-.25-.58-.42-.82-.62a.48.48,0,0,0-.69,0c-.16.14-.34.25-.5.38S11.23,23.3,11.17,23.12Z" fill="#fdfdfd"/><path d="M19.3,30.21a6.89,6.89,0,0,1,.27-.8.48.48,0,0,0-.19-.7,3.76,3.76,0,0,1-.73-.59c.33,0,.67,0,1,0a.36.36,0,0,0,.44-.33c0-.29.25-.53.22-.9a1.23,1.23,0,0,1,.41.74c.15.48.14.49.65.49h.93c-.37.28-.65.53-1,.72s-.17.22-.11.38a4.7,4.7,0,0,1,.29,1.06c-.31-.23-.58-.41-.83-.61a.34.34,0,0,0-.5,0c-.26.21-.55.4-.83.59Z" fill="#fdfdfd"/><path d="M23.36,33.82c.13-.43.22-.78.35-1.1a.32.32,0,0,0-.15-.44l-.74-.51s-.06-.09-.12-.18h1.13a.27.27,0,0,0,.33-.24,4.56,4.56,0,0,1,.36-1,4.86,4.86,0,0,1,.36,1,.27.27,0,0,0,.31.23c.37,0,.73,0,1.14,0-.14.26-.38.34-.56.47-.52.38-.53.37-.34,1l.25.79c-.33-.24-.61-.44-.87-.65a.39.39,0,0,0-.56,0C24,33.38,23.7,33.57,23.36,33.82Z" fill="#fdfdfd"/><path d="M-1.21,33.81c.14-.41.24-.75.36-1.08A.34.34,0,0,0-1,32.28a5.21,5.21,0,0,1-.84-.69,8.86,8.86,0,0,1,.94,0c.34,0,.48-.1.54-.41a6.83,6.83,0,0,1,.2-.67c0-.06,0-.14.12-.13s.07.08.08.13c.09.28.2.55.26.83s.16.26.35.25H1.79a3.55,3.55,0,0,1-.8.63.43.43,0,0,0-.21.61c.12.3.21.61.33,1-.38-.26-.7-.47-1-.71a.2.2,0,0,0-.31,0C-.51,33.34-.83,33.55-1.21,33.81Z" fill="#fdfdfd"/><path d="M31.63,33.72a3.15,3.15,0,0,1,.26-.91c.07-.26.07-.45-.22-.6a2.68,2.68,0,0,1-.73-.62c.32,0,.65,0,1,0a.39.39,0,0,0,.48-.35,3.48,3.48,0,0,1,.36-.9c.1.33.21.66.31,1a.31.31,0,0,0,.36.26c.35,0,.71,0,1.12,0a3.52,3.52,0,0,1-.81.64c-.23.15-.31.29-.19.56a9.3,9.3,0,0,1,.33,1c-.32-.24-.58-.4-.81-.6a.46.46,0,0,0-.71,0A2.86,2.86,0,0,1,31.63,33.72Z" fill="#fdfdfd"/><path d="M8.14,30.24c.14.42.26.74.34,1.07s.14.3.36.28.71,0,1.12,0a3.34,3.34,0,0,1-.81.64c-.21.15-.3.28-.2.54a4.32,4.32,0,0,1,.29,1c-.28-.21-.54-.37-.76-.57a.46.46,0,0,0-.69,0c-.24.19-.49.37-.82.62.13-.39.22-.71.34-1s.09-.43-.17-.58a3.68,3.68,0,0,1-.79-.65c.37,0,.75,0,1.12,0a.26.26,0,0,0,.3-.23C7.88,31,8,30.68,8.14,30.24Z" fill="#fdfdfd"/><path d="M-1.91,3.75c.45,0,.81,0,1.16,0a.28.28,0,0,0,.33-.24c.08-.3.18-.59.27-.89,0-.05,0-.11.1-.11s.08.06.1.11c.08.26.18.52.24.79s.17.37.46.35.65,0,1,0a4.29,4.29,0,0,1-.84.66.34.34,0,0,0-.16.47c.11.31.21.63.33,1A1.85,1.85,0,0,1,.4,5.43c-.56-.4-.39-.34-.86,0l-.74.53c.13-.41.22-.73.34-1A.35.35,0,0,0-1,4.4C-1.31,4.22-1.56,4-1.91,3.75Z" fill="#fdfdfe"/><path d="M14.57,3.75c.35,0,.71,0,1.06,0a.28.28,0,0,0,.31-.21c.15-.35.19-.73.37-1.08a5.24,5.24,0,0,1,.4,1.1.25.25,0,0,0,.28.19h1.18a10.53,10.53,0,0,1-.87.65c-.23.13-.22.28-.17.5a5.66,5.66,0,0,1,.28,1c-.32-.23-.61-.42-.87-.63a.3.3,0,0,0-.45,0c-.27.23-.57.42-.93.68a10.84,10.84,0,0,1,.35-1.12.27.27,0,0,0-.11-.39l-.86-.62Z" fill="#fdfdfe"/><path d="M30.92,3.75H32a.24.24,0,0,0,.28-.21c.11-.37.24-.73.39-1.17.13.41.24.73.33,1.05s.17.35.44.33.66,0,1,0a6.51,6.51,0,0,1-.91.7.28.28,0,0,0-.11.39c.13.32.22.67.35,1.06a7.13,7.13,0,0,1-1-.65.25.25,0,0,0-.37,0c-.28.23-.58.42-.92.66a5.32,5.32,0,0,1,.29-1,.41.41,0,0,0-.19-.53A3.13,3.13,0,0,1,30.92,3.75Z" fill="#fefefe"/><path d="M24.54,2.44c.12.36.23.66.31,1s.17.38.46.35.65,0,1,0a5.88,5.88,0,0,1-.88.68.32.32,0,0,0-.13.44c.13.31.22.65.34,1a2.75,2.75,0,0,1-.75-.51.5.5,0,0,0-.78,0,9,9,0,0,1-.77.57c.14-.43.23-.78.36-1.12a.3.3,0,0,0-.12-.4,5.84,5.84,0,0,1-.84-.69c.36,0,.72,0,1.08,0a.26.26,0,0,0,.3-.23A5.17,5.17,0,0,1,24.54,2.44Z" fill="#fdfdfe"/><path d="M6.28,3.75c.45,0,.81,0,1.18,0a.26.26,0,0,0,.31-.22c.11-.36.23-.72.37-1.15.13.39.26.71.34,1s.18.36.46.34.62,0,1,0a3,3,0,0,1-.8.65c-.18.14-.25.24-.16.46s.2.65.33,1.07L8.55,5.4c-.41-.31-.41-.31-.83,0-.2.15-.41.29-.67.47A3,3,0,0,1,7.31,5c.1-.24.11-.4-.14-.55S6.62,4,6.28,3.75Z" fill="#fefefe"/><path d="M15.88,10.66l.43-1.24c.25.33.24.73.4,1.07.07.15.13.2.28.2h1.15a2.74,2.74,0,0,1-.77.63.45.45,0,0,0-.22.59,2.81,2.81,0,0,1,.26,1c-.26-.19-.5-.35-.71-.53a.48.48,0,0,0-.74,0,9.39,9.39,0,0,1-.79.59,11.17,11.17,0,0,1,.36-1.14.25.25,0,0,0-.1-.35l-.69-.52c-.07-.2.09-.18.2-.19h.62A.41.41,0,0,0,15.88,10.66Z" fill="#fdfdfd"/><path d="M27.49,9.32c.11-.34.22-.69.34-1,0-.14.07-.22-.09-.32s-.6-.45-1-.74c.44,0,.79,0,1.13,0A.32.32,0,0,0,28.26,7l.34-1.11c.14.4.26.73.35,1.06s.16.33.42.31.66,0,1.1,0c-.35.26-.6.49-.89.66a.36.36,0,0,0-.16.47,4.24,4.24,0,0,1,.28,1c-.31-.22-.58-.4-.83-.61a.35.35,0,0,0-.52,0c-.25.21-.53.39-.8.58Z" fill="#fdfdfd"/><path d="M2.9,16.38c.13-.44.22-.79.34-1.13a.28.28,0,0,0-.13-.38,4.94,4.94,0,0,1-.81-.67c.35,0,.7,0,1,0A.29.29,0,0,0,3.67,14c.11-.36.23-.71.36-1.09a3.37,3.37,0,0,1,.31.88c.08.32.21.5.58.46a7.72,7.72,0,0,1,.92,0,3.61,3.61,0,0,1-.82.65.36.36,0,0,0-.14.52c.12.29.19.6.3,1a6.75,6.75,0,0,1-1-.65.23.23,0,0,0-.34,0C3.59,15.92,3.27,16.12,2.9,16.38Z" fill="#fdfdfe"/><path d="M14.57,17.67c.32,0,.65,0,1,0a.38.38,0,0,0,.45-.32,5.25,5.25,0,0,1,.33-1,5.11,5.11,0,0,1,.4,1.07c.07.17.14.21.31.21H18.2c-.32.24-.55.43-.8.59s-.38.32-.23.62a6,6,0,0,1,.22.63c0,.08.08.19,0,.25s-.15,0-.21-.1l-.1-.08c-.83-.55-.83-.55-1.62.1a.33.33,0,0,1-.26.12,9.76,9.76,0,0,1,.32-1,.25.25,0,0,0-.11-.37c-.29-.21-.58-.43-.87-.64Z" fill="#fdfdfd"/><path d="M1.06,19.84c-.31-.22-.58-.38-.81-.58a.38.38,0,0,0-.58,0c-.25.21-.53.39-.87.63.12-.39.2-.71.33-1A.38.38,0,0,0-1,18.32a4.94,4.94,0,0,1-.8-.65,9,9,0,0,1,.94,0,.43.43,0,0,0,.53-.4c.05-.24.14-.47.21-.7,0-.06,0-.14.1-.14s.08.09.1.15c.09.29.2.57.27.86a.26.26,0,0,0,.31.22H1.82c-.36.27-.63.5-.93.69a.32.32,0,0,0-.14.42A6.28,6.28,0,0,1,1.06,19.84Z" fill="#fdfdfd"/><path d="M5.91,7.22c-.39.3-.69.54-1,.75-.12.08-.14.15-.08.27.14.28.14.6.29.88,0,.06.05.14,0,.18s-.12,0-.17-.06c-.22-.17-.45-.33-.67-.5a.33.33,0,0,0-.47,0c-.27.21-.55.41-.91.67C3,9,3.1,8.63,3.23,8.3a.28.28,0,0,0-.12-.38,5.46,5.46,0,0,1-.82-.69c.33,0,.67,0,1,0a.34.34,0,0,0,.4-.3c.09-.33.21-.65.34-1a3.57,3.57,0,0,1,.33.91c.08.27.2.44.53.4A9.47,9.47,0,0,1,5.91,7.22Z" fill="#fdfdfd"/><path d="M7.7,10.66l.44-1.32c.13.41.25.74.35,1.08a.3.3,0,0,0,.35.26c.28,0,.56,0,.84,0,.07,0,.17-.05.2.05s-.07.13-.13.17l-.67.49a.29.29,0,0,0-.13.38,5.21,5.21,0,0,1,.31,1.1c-.3-.22-.57-.4-.82-.61a.4.4,0,0,0-.58,0L7,12.89a3.48,3.48,0,0,1,.28-1,.37.37,0,0,0-.14-.53c-.24-.16-.46-.33-.7-.5,0-.2.2-.13.31-.14A3.1,3.1,0,0,0,7.7,10.66Z" fill="#fdfdfd"/><path d="M11.13,16.35a4.84,4.84,0,0,1,.3-1.06.31.31,0,0,0-.14-.42,4.1,4.1,0,0,1-.81-.68h1c.2,0,.33,0,.37-.27a8.34,8.34,0,0,1,.27-.86c0-.06,0-.11.1-.11s.06.07.08.12c.1.29.2.58.29.88a.29.29,0,0,0,.34.24c.35,0,.7,0,1.15,0-.37.27-.64.5-.93.68a.32.32,0,0,0-.14.45l.35,1a3.1,3.1,0,0,1-.86-.56c-.2-.14-.35-.21-.56,0A8.24,8.24,0,0,1,11.13,16.35Z" fill="#fdfdfe"/><path d="M-.49,10.65l.34-1c0-.06,0-.14.11-.13s.07.07.08.12l.18.57c.17.51.17.51.72.51h.79a2.48,2.48,0,0,1-.75.63c-.22.15-.33.3-.22.57s.21.62.35,1c-.32-.23-.57-.39-.8-.59a.46.46,0,0,0-.71,0c-.23.2-.49.37-.81.6.13-.4.2-.73.33-1A.39.39,0,0,0-1,11.35l-.67-.48c0-.2.19-.13.31-.14C-1.09,10.69-.78,10.8-.49,10.65Z" fill="#fdfdfd"/><path d="M14.1,7.22a9,9,0,0,1-.92.7c-.24.14-.2.29-.12.46a5.77,5.77,0,0,1,.3,1,3.42,3.42,0,0,1-.8-.54.39.39,0,0,0-.6,0c-.24.21-.52.38-.81.59a4.18,4.18,0,0,1,.29-1c.06-.18.08-.32-.13-.45a4.06,4.06,0,0,1-.81-.69h1c.21,0,.35,0,.4-.28a6.45,6.45,0,0,1,.26-.83c0-.06,0-.11.1-.12s.07.07.08.12.08.25.13.38c.27.73.27.73,1.05.73Z" fill="#fdfdfd"/><path d="M7.1,19.79a2.47,2.47,0,0,1,.21-.93c.1-.21.11-.38-.13-.52s-.56-.41-.92-.67c.45,0,.82,0,1.18,0a.28.28,0,0,0,.33-.24c.1-.35.22-.69.37-1.13.14.42.26.75.35,1.09a.32.32,0,0,0,.37.28,4.29,4.29,0,0,1,1.05.07c-.29.22-.58.45-.88.66-.12.08-.16.15-.1.3a5.28,5.28,0,0,1,.27,1.1c-.27-.19-.55-.37-.8-.58a.33.33,0,0,0-.49,0C7.65,19.43,7.37,19.6,7.1,19.79Z" fill="#fdfdfd"/><path d="M20.46,12.94a9.27,9.27,0,0,1,.3.91c.06.26.16.38.44.36s.64,0,1,0a3.93,3.93,0,0,1-.85.67.32.32,0,0,0-.14.44c.12.32.21.65.33,1a7,7,0,0,1-1-.67c-.12-.09-.19-.08-.31,0a6.36,6.36,0,0,1-1,.65,4.35,4.35,0,0,1,.27-.88c.1-.24.15-.45-.16-.61a3.12,3.12,0,0,1-.76-.63,9.39,9.39,0,0,1,.95,0c.32,0,.42-.12.49-.4s.19-.59.29-.88Z" fill="#fdfdfe"/><path d="M18.62,7.22c.37,0,.69,0,1,0s.41-.12.48-.38A3.6,3.6,0,0,1,20.47,6c.1.31.23.62.3.94a.34.34,0,0,0,.41.32c.33,0,.67,0,1.05,0a5.57,5.57,0,0,1-.9.72.26.26,0,0,0-.1.36c.12.33.21.67.34,1.08a4.88,4.88,0,0,1-.86-.6.36.36,0,0,0-.53,0c-.21.17-.44.34-.66.5,0,0-.11.07-.15.05s0-.11,0-.17l.29-.88c0-.14,0-.22-.12-.33A5.6,5.6,0,0,1,18.62,7.22Z" fill="#fdfdfd"/><path d="M27.49,16.29c.1-.32.19-.66.31-1s.08-.32-.12-.44a4.76,4.76,0,0,1-.83-.68c.33,0,.67,0,1,0a.36.36,0,0,0,.42-.31c.1-.33.2-.66.32-1a3.53,3.53,0,0,1,.35.95c.09.3.22.42.53.38s.6,0,1,0c-.35.26-.6.49-.89.66s-.2.26-.16.45a6.93,6.93,0,0,1,.29,1,4.19,4.19,0,0,1-.91-.61.26.26,0,0,0-.37,0c-.29.22-.59.43-.88.64Z" fill="#fdfdfe"/><path d="M25.61,19.83c-.29-.21-.58-.4-.86-.62a.3.3,0,0,0-.44,0c-.28.22-.58.41-.9.64a5.05,5.05,0,0,1,.3-1c.06-.2.07-.32-.12-.45a4.43,4.43,0,0,1-.83-.69h1.05a.29.29,0,0,0,.35-.26c.08-.33.21-.65.34-1a3.72,3.72,0,0,1,.37,1,.34.34,0,0,0,.4.29c.34,0,.69,0,1.13,0-.37.28-.66.52-1,.71a.27.27,0,0,0-.12.39l.35,1Z" fill="#fdfdfd"/><path d="M1.1,26.79a5.6,5.6,0,0,1-1-.67.21.21,0,0,0-.31,0,6.75,6.75,0,0,1-1,.68c.13-.38.23-.71.34-1A.32.32,0,0,0-1,25.32c-.28-.17-.53-.39-.85-.62a5.27,5.27,0,0,1,1.07,0,.32.32,0,0,0,.36-.26c.08-.28.17-.55.26-.82,0-.07,0-.17.11-.17s.07.09.09.15c.09.29.19.57.27.86a.29.29,0,0,0,.34.24,4.65,4.65,0,0,1,1.05.07c-.27.2-.52.42-.81.59a.31.31,0,0,0-.15.42C.85,26.07,1,26.4,1.1,26.79Z" fill="#fdfdfd"/><path d="M31.61,19.83a4.66,4.66,0,0,1,.29-1,.41.41,0,0,0-.19-.53,3.89,3.89,0,0,1-.76-.63c.3,0,.61,0,.91,0a.44.44,0,0,0,.54-.38,3.28,3.28,0,0,1,.33-1c.12.37.23.69.32,1s.17.33.42.32.67,0,1.06,0a6.48,6.48,0,0,1-.93.73.23.23,0,0,0-.1.33c.11.29.2.59.3.88,0,.05.06.11,0,.15s-.12,0-.17,0c-.23-.17-.47-.34-.69-.52a.29.29,0,0,0-.43,0C32.24,19.42,32,19.6,31.61,19.83Z" fill="#fdfdfd"/><path d="M18.09,24.73c-.26.19-.52.4-.79.58a.32.32,0,0,0-.16.44c.11.32.2.65.32,1a4.7,4.7,0,0,1-.93-.62.27.27,0,0,0-.4,0c-.28.23-.58.43-1,.71.13-.43.21-.79.35-1.12s0-.3-.13-.4a5.41,5.41,0,0,1-.82-.67c.35,0,.7,0,1,0a.29.29,0,0,0,.32-.21c.16-.35.19-.75.39-1.1a7.66,7.66,0,0,1,.41,1.13c.07.14.12.18.26.18h1.08Z" fill="#fdfdfe"/><path d="M26.3,24.72c-.28.21-.56.42-.85.61s-.2.25-.12.45.22.65.35,1.05c-.38-.27-.69-.49-1-.71a.22.22,0,0,0-.32,0c-.3.23-.61.44-1,.69a5.36,5.36,0,0,1,.31-1.07.3.3,0,0,0-.14-.41,4.6,4.6,0,0,1-.81-.67c.34,0,.68,0,1,0a.31.31,0,0,0,.37-.28c.09-.33.21-.65.34-1a5,5,0,0,1,.36,1,.35.35,0,0,0,.43.31c.33,0,.66,0,1,0Z" fill="#fdfdfe"/><path d="M34.47,24.73c-.27.2-.54.42-.83.6a.28.28,0,0,0-.14.41c.13.32.22.67.34,1.05a5.27,5.27,0,0,1-.89-.61c-.17-.12-.28-.18-.48,0a9.09,9.09,0,0,1-.86.62,3.78,3.78,0,0,1,.27-1c.07-.25.06-.44-.21-.58a2.57,2.57,0,0,1-.7-.59,8.58,8.58,0,0,1,.92,0c.3,0,.41-.11.48-.37a4.22,4.22,0,0,1,.37-.93c.1.33.21.66.31,1a.36.36,0,0,0,.43.31c.32,0,.65,0,1,0Z" fill="#fdfdfe"/><path d="M7,26.71c.09-.28.16-.57.27-.85s.13-.42-.15-.58a3.31,3.31,0,0,1-.76-.63,7.48,7.48,0,0,1,.91,0c.34,0,.45-.12.52-.4s.19-.6.32-1c.13.42.25.76.35,1.09s.15.31.4.3a3.6,3.6,0,0,1,1,.07c-.26.2-.51.41-.79.58s-.24.21-.16.43.21.67.34,1.1c-.38-.27-.69-.48-1-.71a.21.21,0,0,0-.31,0c-.29.22-.59.42-.89.63Z" fill="#fdfdfe"/><path d="M30.16,21.38a3.18,3.18,0,0,1-.5.38c-.28.14-.29.34-.21.6a4.25,4.25,0,0,1,.27.91,4.52,4.52,0,0,1-.89-.6.32.32,0,0,0-.43,0l-.93.69a8.6,8.6,0,0,1,.33-1.06.34.34,0,0,0-.14-.49,6.5,6.5,0,0,1-.89-.69c.41,0,.75,0,1.09,0a.35.35,0,0,0,.42-.31,4.45,4.45,0,0,1,.36-1L29,21.1c.19.17.42.06.64.09s.29,0,.43,0S30.31,21.27,30.16,21.38Z" fill="#fdfdfd"/><path d="M34.26,10.94l-.62.45a.3.3,0,0,0-.13.44,9.78,9.78,0,0,1,.35,1.09L33,12.3a.44.44,0,0,0-.64,0c-.23.2-.49.37-.76.58-.06-.24.07-.42.12-.61a3.73,3.73,0,0,1,.15-.44.35.35,0,0,0-.18-.47,2.7,2.7,0,0,1-.56-.42c-.15-.15,0-.19.09-.2s.46,0,.7,0,.25,0,.34-.08l.4-1.27c.23.47.27.91.48,1.3a3.22,3.22,0,0,0,.92.06C34.21,10.74,34.42,10.7,34.26,10.94Z" fill="#fdfdfe"/><path d="M3.6,21.11,4,19.85a12.09,12.09,0,0,1,.45,1.26c.29.15.6,0,.9.07.11,0,.3,0,.23.19-.22.17-.44.34-.67.49a.27.27,0,0,0-.1.38c.13.33.22.68.35,1.11-.34-.25-.62-.43-.87-.64a.39.39,0,0,0-.58,0c-.26.2-.53.39-.82.61a5.19,5.19,0,0,1,.31-1.09.35.35,0,0,0-.16-.44l-.55-.41c-.13-.14,0-.2.1-.21s.42,0,.63,0S3.5,21.22,3.6,21.11Z" fill="#fdfdfe"/><path d="M26.15,10.87l-.69.51a.33.33,0,0,0-.13.47,8.89,8.89,0,0,1,.34,1.05c-.31-.23-.58-.4-.81-.6a.46.46,0,0,0-.69,0c-.23.2-.49.37-.78.59a5.18,5.18,0,0,1,.32-1.09.32.32,0,0,0-.13-.42L23,10.94c-.13-.14,0-.19.09-.2a6.77,6.77,0,0,1,.7,0c.22,0,.38,0,.41-.31a1.64,1.64,0,0,1,.15-.44.84.84,0,0,1,.24-.51l.24.77c.14.48.14.48.63.48h.5C26,10.73,26.16,10.72,26.15,10.87Z" fill="#fdfdfd"/><path d="M24.32,10a2.34,2.34,0,0,1-.15.61c0,.15-.16.2-.31.2H23.1c-.12,0-.17,0-.12.15-.12,0-.26-.08-.23-.22s.17-.05.27,0C23.58,10.68,24.21,10.82,24.32,10Z" fill="#babacb"/><path d="M26.15,10.87c-.25-.18-.53-.07-.8-.08-.44,0-.51-.08-.55-.55.09.41.38.47.74.42a3.93,3.93,0,0,1,.59,0c.06,0,.17,0,.18.08S26.24,10.87,26.15,10.87Z" fill="#b9b9cb"/><path d="M34.26,10.94c0-.12,0-.16-.12-.16h-.7c-.1,0-.24,0-.27-.12.34,0,.69,0,1,0,.11,0,.28-.08.31.06S34.37,10.89,34.26,10.94Z" fill="#b4b4c6"/><path d="M32.29,10.64c0,.17-.17.14-.29.14h-.72c-.11,0-.17,0-.12.15-.14,0-.23-.09-.31-.29Z" fill="#b6b6c8"/><path d="M15.88,10.66c0,.17-.16.12-.26.13H15c-.1,0-.21,0-.21.13-.09,0-.25-.06-.21-.21s.16,0,.24,0Z" fill="#b5b4c7"/><path d="M3.6,21.11c0,.17-.15.13-.25.14h-.7c-.12,0-.17,0-.12.15a.49.49,0,0,1-.32-.29Z" fill="#cacad7"/><path d="M30.16,21.38c.06-.15,0-.13-.14-.13h-.7c-.12,0-.25,0-.29-.15H30.4C30.41,21.3,30.29,21.35,30.16,21.38Z" fill="#ccccd9"/><path d="M5.62,21.38c0-.17-.15-.13-.25-.13H4.73c-.1,0-.23,0-.25-.13H5.85C5.84,21.3,5.71,21.33,5.62,21.38Z" fill="#cacad7"/><path d="M7.7,10.66c-.08.17-.25.1-.38.12s-.57-.09-.84.08c-.09,0-.16-.05-.16-.14s.12-.06.19-.06Z" fill="#b8b8c9"/><path d="M11.17,23.12c.07.12.15,0,.22,0a2,2,0,0,1-.15.16c-.05,0-.13.07-.16,0A.11.11,0,0,1,11.17,23.12Z" fill="#9b9ab4"/></g></g><g id="Layer_6" data-name="Layer 6"><path d="M38,2.09A32.47,32.47,0,1,1,4.58,24.47" fill="none" stroke="#7accc8" stroke-miterlimit="10" stroke-width="2"/><path d="M37,2a5.22,5.22,0,0,1,1,.09" fill="none" stroke="#7accc8" stroke-miterlimit="10" stroke-width="2"/></g></svg>